<svg width="70" height="60" viewBox="0 0 70 60" fill="none" xmlns="http://www.w3.org/2000/svg">
<path d="M51.9624 29.9304C50.9698 27.7944 48.5401 26.2823 45.6939 26.2823C42.8476 26.2823 40.418 27.7943 39.4253 29.9304H38.9436V32.0682C38.9436 33.6661 39.6989 35.1127 40.9205 36.1596C42.1419 37.2066 43.8297 37.854 45.6937 37.854C49.4219 37.854 52.4438 35.2638 52.4438 32.0682V29.9304H51.9624Z" fill="#A4B830"/>
<path d="M43.4154 34.0218H40.9213V36.1596C42.2394 37.2894 43.9669 37.854 45.6945 37.854V32.0682L43.4154 34.0218Z" fill="#D7ECED"/>
<path d="M52.4446 32.0682V29.9304H51.963C51.6213 29.196 51.1075 28.5377 50.4678 27.987V32.0681H45.6945L50.4678 36.1595C51.7852 35.0298 52.4446 33.549 52.4446 32.0682Z" fill="#D7ECED"/>
<path d="M50.4673 34.0218H47.9731L45.6939 32.0681V37.8539C47.558 37.8539 49.2457 37.2065 50.4671 36.1595V34.0218H50.4673Z" fill="#A4B830"/>
<path d="M45.6961 35.7162C49.424 35.7162 52.4461 33.1258 52.4461 29.9304C52.4461 26.735 49.424 24.1446 45.6961 24.1446C41.9681 24.1446 38.946 26.735 38.946 29.9304C38.946 33.1258 41.9681 35.7162 45.6961 35.7162Z" fill="#2D5872"/>
<path d="M45.6945 24.1446V29.9304L50.4678 25.839C49.1492 24.7092 47.4214 24.1446 45.6945 24.1446Z" fill="white"/>
<path d="M40.9213 25.839L45.6945 29.9304V24.1446C43.8305 24.1446 42.1427 24.792 40.9213 25.839Z" fill="#C2D64A"/>
<path d="M38.9438 29.9304H45.6938L40.9206 25.839C39.6032 26.9688 38.9438 28.4496 38.9438 29.9304Z" fill="white"/>
<path d="M40.9213 34.0218L45.6945 29.9304H38.9445C38.9438 31.5282 39.6998 32.9748 40.9213 34.0218Z" fill="#C2D64A"/>
<path d="M45.6945 35.7162V29.9304L40.9213 34.0218C42.2394 35.1516 43.9669 35.7162 45.6945 35.7162Z" fill="white"/>
<path d="M50.4673 34.0218L45.694 29.9304V35.7162C47.558 35.7162 49.2457 35.0689 50.4673 34.0218Z" fill="#C2D64A"/>
<path d="M52.4446 29.9304H45.6945L50.4678 34.0218C51.7852 32.892 52.4446 31.4112 52.4446 29.9304Z" fill="white"/>
<path d="M50.4673 25.839L45.694 29.9304H52.4441C52.4446 28.3327 51.6887 26.886 50.4673 25.839Z" fill="#C2D64A"/>
<path d="M45.6961 34.0217C48.3323 34.0217 50.4693 32.19 50.4693 29.9304C50.4693 27.6708 48.3323 25.839 45.6961 25.839C43.0599 25.839 40.9228 27.6708 40.9228 29.9304C40.9228 32.19 43.0599 34.0217 45.6961 34.0217Z" fill="#C2D64A"/>
<path d="M45.6961 32.8237C47.5603 32.8237 49.0715 31.5283 49.0715 29.9304C49.0715 28.3325 47.5603 27.0372 45.6961 27.0372C43.8318 27.0372 42.3206 28.3325 42.3206 29.9304C42.3206 31.5283 43.8318 32.8237 45.6961 32.8237Z" fill="white"/>
<path d="M51.9624 27.7927C50.9698 25.6567 48.5401 24.1446 45.6939 24.1446C42.8476 24.1446 40.418 25.6566 39.4253 27.7927H38.9436V29.9305C38.9436 31.5284 39.6989 32.9749 40.9205 34.0219C42.1419 35.0688 43.8297 35.7163 45.6937 35.7163C49.4219 35.7163 52.4438 33.1261 52.4438 29.9305V27.7927H51.9624Z" fill="#A4B830"/>
<path d="M43.4154 31.884H40.9213V34.0219C42.2394 35.1517 43.9669 35.7163 45.6945 35.7163V29.9305L43.4154 31.884Z" fill="#D7ECED"/>
<path d="M52.4446 29.9304V27.7925H51.963C51.6213 27.0581 51.1075 26.3999 50.4678 25.8491V29.9303H45.6945L50.4678 34.0216C51.7852 32.8919 52.4446 31.4112 52.4446 29.9304Z" fill="#D7ECED"/>
<path d="M50.4673 31.884H47.9731L45.6939 29.9304V35.7162C47.558 35.7162 49.2457 35.0689 50.4671 34.0218V31.884H50.4673Z" fill="#A4B830"/>
<path d="M45.6961 33.5777C49.424 33.5777 52.4461 30.9874 52.4461 27.792C52.4461 24.5966 49.424 22.0062 45.6961 22.0062C41.9681 22.0062 38.946 24.5966 38.946 27.792C38.946 30.9874 41.9681 33.5777 45.6961 33.5777Z" fill="#2D5872"/>
<path d="M45.6945 22.0068V27.7925L50.4678 23.7012C49.1492 22.5714 47.4214 22.0068 45.6945 22.0068Z" fill="white"/>
<path d="M40.9213 23.7012L45.6945 27.7925V22.0068C43.8305 22.0068 42.1427 22.6542 40.9213 23.7012Z" fill="#C2D64A"/>
<path d="M38.9438 27.7926H45.6938L40.9206 23.7013C39.6032 24.831 38.9438 26.3118 38.9438 27.7926Z" fill="white"/>
<path d="M40.9213 31.884L45.6945 27.7927H38.9445C38.9438 29.3904 39.6998 30.837 40.9213 31.884Z" fill="#C2D64A"/>
<path d="M45.6945 33.5784V27.7927L40.9213 31.884C42.2394 33.0138 43.9669 33.5784 45.6945 33.5784Z" fill="white"/>
<path d="M50.4673 31.884L45.694 27.7927V33.5784C47.558 33.5784 49.2457 32.931 50.4673 31.884Z" fill="#C2D64A"/>
<path d="M52.4446 27.7927H45.6945L50.4678 31.884C51.7852 30.7542 52.4446 29.2734 52.4446 27.7927Z" fill="white"/>
<path d="M50.4673 23.7012L45.694 27.7925H52.4441C52.4446 26.1948 51.6887 24.7482 50.4673 23.7012Z" fill="#C2D64A"/>
<path d="M45.6961 31.8833C48.3323 31.8833 50.4693 30.0516 50.4693 27.792C50.4693 25.5324 48.3323 23.7006 45.6961 23.7006C43.0599 23.7006 40.9228 25.5324 40.9228 27.792C40.9228 30.0516 43.0599 31.8833 45.6961 31.8833Z" fill="#C2D64A"/>
<path d="M45.6961 30.6852C47.5603 30.6852 49.0715 29.3898 49.0715 27.792C49.0715 26.1941 47.5603 24.8987 45.6961 24.8987C43.8318 24.8987 42.3206 26.1941 42.3206 27.792C42.3206 29.3898 43.8318 30.6852 45.6961 30.6852Z" fill="white"/>
<path d="M51.9624 25.6548C50.9698 23.5188 48.5401 22.0068 45.6939 22.0068C42.8476 22.0068 40.418 23.5187 39.4253 25.6548H38.9436V27.7927C38.9436 29.3905 39.6989 30.8371 40.9205 31.884C42.1419 32.931 43.8297 33.5784 45.6937 33.5784C49.4219 33.5784 52.4438 30.9882 52.4438 27.7927V25.6548H51.9624Z" fill="#A4B830"/>
<path d="M43.4154 29.7462H40.9213V31.884C42.2394 33.0138 43.9669 33.5784 45.6945 33.5784V27.7927L43.4154 29.7462Z" fill="#D7ECED"/>
<path d="M52.4446 27.7927V25.6548H51.963C51.6213 24.9204 51.1075 24.2622 50.4678 23.7114V27.7925H45.6945L50.4678 31.8839C51.7852 30.7542 52.4446 29.2734 52.4446 27.7927Z" fill="#D7ECED"/>
<path d="M50.4673 29.7456H47.9731L45.6939 27.792V33.5777C47.558 33.5777 49.2457 32.9304 50.4671 31.8833V29.7456H50.4673Z" fill="#A4B830"/>
<path d="M45.6961 31.4406C49.424 31.4406 52.4461 28.8502 52.4461 25.6548C52.4461 22.4594 49.424 19.869 45.6961 19.869C41.9681 19.869 38.946 22.4594 38.946 25.6548C38.946 28.8502 41.9681 31.4406 45.6961 31.4406Z" fill="#2D5872"/>
<path d="M45.6945 19.869V25.6548L50.4678 21.5634C49.1492 20.4336 47.4214 19.869 45.6945 19.869Z" fill="white"/>
<path d="M40.9213 21.5634L45.6945 25.6548V19.869C43.8305 19.869 42.1427 20.5164 40.9213 21.5634Z" fill="#C2D64A"/>
<path d="M38.9438 25.6548H45.6938L40.9206 21.5634C39.6032 22.6932 38.9438 24.174 38.9438 25.6548Z" fill="white"/>
<path d="M40.9213 29.7462L45.6945 25.6548H38.9445C38.9438 27.2527 39.6998 28.6986 40.9213 29.7462Z" fill="#C2D64A"/>
<path d="M45.6945 31.4406V25.6548L40.9213 29.7462C42.2394 30.8754 43.9669 31.4406 45.6945 31.4406Z" fill="white"/>
<path d="M50.4673 29.7462L45.694 25.6548V31.4406C47.558 31.4406 49.2457 30.7932 50.4673 29.7462Z" fill="#C2D64A"/>
<path d="M52.4446 25.6548H45.6945L50.4678 29.7462C51.7852 28.6164 52.4446 27.1356 52.4446 25.6548Z" fill="white"/>
<path d="M50.4673 21.5634L45.694 25.6548H52.4441C52.4446 24.0569 51.6887 22.6104 50.4673 21.5634Z" fill="#C2D64A"/>
<path d="M45.6961 29.7462C48.3323 29.7462 50.4693 27.9144 50.4693 25.6548C50.4693 23.3952 48.3323 21.5634 45.6961 21.5634C43.0599 21.5634 40.9228 23.3952 40.9228 25.6548C40.9228 27.9144 43.0599 29.7462 45.6961 29.7462Z" fill="#C2D64A"/>
<path d="M45.6961 28.548C47.5603 28.548 49.0715 27.2527 49.0715 25.6548C49.0715 24.0569 47.5603 22.7616 45.6961 22.7616C43.8318 22.7616 42.3206 24.0569 42.3206 25.6548C42.3206 27.2527 43.8318 28.548 45.6961 28.548Z" fill="white"/>
<path d="M51.9624 23.517C50.9698 21.381 48.5401 19.8689 45.6939 19.8689C42.8476 19.8689 40.418 21.3809 39.4253 23.517H38.9436V25.6548C38.9436 27.2527 39.6989 28.6992 40.9205 29.7462C42.1419 30.7931 43.8297 31.4406 45.6937 31.4406C49.4219 31.4406 52.4438 28.8504 52.4438 25.6548V23.517H51.9624Z" fill="#A4B830"/>
<path d="M43.4154 27.6079H40.9213V29.7457C42.2394 30.8755 43.9669 31.4401 45.6945 31.4401V25.6543L43.4154 27.6079Z" fill="#D7ECED"/>
<path d="M52.4446 25.6548V23.517H51.963C51.6213 22.7826 51.1075 22.1243 50.4678 21.5735V25.6547H45.6945L50.4678 29.7461C51.7852 28.6158 52.4446 27.1356 52.4446 25.6548Z" fill="#D7ECED"/>
<path d="M50.4673 27.6079H47.9731L45.6939 25.6542V31.44C47.558 31.44 49.2457 30.7927 50.4671 29.7456V27.6079H50.4673Z" fill="#A4B830"/>
<path d="M45.6961 29.3058C49.424 29.3058 52.4461 26.7154 52.4461 23.52C52.4461 20.3246 49.424 17.7342 45.6961 17.7342C41.9681 17.7342 38.946 20.3246 38.946 23.52C38.946 26.7154 41.9681 29.3058 45.6961 29.3058Z" fill="#2D5872"/>
<path d="M45.6945 17.7306V23.5164L50.4678 19.425C49.1492 18.2958 47.4214 17.7306 45.6945 17.7306Z" fill="white"/>
<path d="M40.9213 19.4256L45.6945 23.517V17.7312C43.8305 17.7306 42.1427 18.3786 40.9213 19.4256Z" fill="#C2D64A"/>
<path d="M38.9438 23.517H45.6938L40.9206 19.4256C39.6032 20.5554 38.9438 22.0362 38.9438 23.517Z" fill="white"/>
<path d="M40.9213 27.6079L45.6945 23.5165H38.9445C38.9438 25.1148 39.6998 26.5608 40.9213 27.6079Z" fill="#C2D64A"/>
<path d="M45.6945 29.3029V23.5171L40.9213 27.6084C42.2394 28.7377 43.9669 29.3029 45.6945 29.3029Z" fill="white"/>
<path d="M50.4673 27.6079L45.694 23.5165V29.3023C47.558 29.3029 49.2457 28.6548 50.4673 27.6079Z" fill="#C2D64A"/>
<path d="M52.4446 23.517H45.6945L50.4678 27.6083C51.7852 26.4781 52.4446 24.9972 52.4446 23.517Z" fill="white"/>
<path d="M50.4673 19.4256L45.694 23.517H52.4441C52.4446 21.9192 51.6887 20.4727 50.4673 19.4256Z" fill="#C2D64A"/>
<path d="M45.6961 27.6114C48.3323 27.6114 50.4693 25.7796 50.4693 23.52C50.4693 21.2604 48.3323 19.4286 45.6961 19.4286C43.0599 19.4286 40.9228 21.2604 40.9228 23.52C40.9228 25.7796 43.0599 27.6114 45.6961 27.6114Z" fill="#C2D64A"/>
<path d="M45.6961 26.4133C47.5603 26.4133 49.0715 25.1179 49.0715 23.52C49.0715 21.9221 47.5603 20.6268 45.6961 20.6268C43.8318 20.6268 42.3206 21.9221 42.3206 23.52C42.3206 25.1179 43.8318 26.4133 45.6961 26.4133Z" fill="white"/>
<path d="M51.9624 21.3786C50.9698 19.2427 48.5401 17.7306 45.6939 17.7306C42.8476 17.7306 40.418 19.2425 39.4253 21.3786H38.9436V23.5165C38.9436 25.1143 39.6989 26.5609 40.9205 27.6079C42.1419 28.6548 43.8297 29.3023 45.6937 29.3023C49.4219 29.3023 52.4438 26.7121 52.4438 23.5165V21.3786H51.9624V21.3786Z" fill="#A4B830"/>
<path d="M43.4154 25.47H40.9213V27.6079C42.2394 28.7377 43.9669 29.3023 45.6945 29.3023V23.5165L43.4154 25.47Z" fill="#D7ECED"/>
<path d="M52.4446 23.517V21.3791H51.963C51.6213 20.6447 51.1075 19.9865 50.4678 19.4357V23.5168H45.6945L50.4678 27.6082C51.7852 26.4781 52.4446 24.9972 52.4446 23.517Z" fill="#D7ECED"/>
<path d="M50.4673 25.47H47.9731L45.6939 23.5164V29.3021C47.558 29.3021 49.2457 28.6548 50.4671 27.6077V25.47H50.4673Z" fill="#A4B830"/>
<path d="M45.6961 27.1644C49.424 27.1644 52.4461 24.574 52.4461 21.3786C52.4461 18.1832 49.424 15.5928 45.6961 15.5928C41.9681 15.5928 38.946 18.1832 38.946 21.3786C38.946 24.574 41.9681 27.1644 45.6961 27.1644Z" fill="#2D5872"/>
<path d="M45.6945 15.5928V21.3786L50.4678 17.2873C49.1492 16.158 47.4214 15.5928 45.6945 15.5928Z" fill="white"/>
<path d="M40.9213 17.2879L45.6945 21.3792V15.5934C43.8305 15.5929 42.1427 16.2408 40.9213 17.2879Z" fill="#C2D64A"/>
<path d="M38.9438 21.3786H45.6938L40.9206 17.2873C39.6032 18.4177 38.9438 19.8984 38.9438 21.3786Z" fill="white"/>
<path d="M40.9213 25.47L45.6945 21.3786H38.9445C38.9438 22.9764 39.6998 24.423 40.9213 25.47Z" fill="#C2D64A"/>
<path d="M45.6945 27.165V21.3792L40.9213 25.4706C42.2394 26.5998 43.9669 27.165 45.6945 27.165Z" fill="white"/>
<path d="M50.4673 25.47L45.694 21.3786V27.1644C47.558 27.165 49.2457 26.517 50.4673 25.47Z" fill="#C2D64A"/>
<path d="M52.4446 21.3786H45.6945L50.4678 25.47C51.7852 24.3402 52.4446 22.8594 52.4446 21.3786Z" fill="white"/>
<path d="M50.4673 17.2879L45.694 21.3792H52.4441C52.4446 19.7814 51.6887 18.3348 50.4673 17.2879Z" fill="#C2D64A"/>
<path d="M45.6961 25.47C48.3323 25.47 50.4693 23.6382 50.4693 21.3786C50.4693 19.119 48.3323 17.2873 45.6961 17.2873C43.0599 17.2873 40.9228 19.119 40.9228 21.3786C40.9228 23.6382 43.0599 25.47 45.6961 25.47Z" fill="#C2D64A"/>
<path d="M45.6961 24.2719C47.5603 24.2719 49.0715 22.9765 49.0715 21.3786C49.0715 19.7807 47.5603 18.4854 45.6961 18.4854C43.8318 18.4854 42.3206 19.7807 42.3206 21.3786C42.3206 22.9765 43.8318 24.2719 45.6961 24.2719Z" fill="white"/>
<path d="M51.9624 19.2408C50.9698 17.1048 48.5401 15.5927 45.6939 15.5927C42.8476 15.5927 40.418 17.1047 39.4253 19.2408H38.9436V21.3786C38.9436 22.9765 39.6989 24.423 40.9205 25.47C42.1419 26.5169 43.8297 27.1644 45.6937 27.1644C49.4219 27.1644 52.4438 24.5742 52.4438 21.3786V19.2408H51.9624Z" fill="#A4B830"/>
<path d="M43.4154 23.3322H40.9213V25.47C42.2394 26.5998 43.9669 27.1644 45.6945 27.1644V21.3786L43.4154 23.3322Z" fill="#D7ECED"/>
<path d="M52.4446 21.3786V19.2408H51.963C51.6213 18.5064 51.1075 17.8481 50.4678 17.2973V21.3785H45.6945L50.4678 25.4699C51.7852 24.3402 52.4446 22.8594 52.4446 21.3786Z" fill="#D7ECED"/>
<path d="M50.4673 23.3322H47.9731L45.6939 21.3785V27.1643C47.558 27.1643 49.2457 26.517 50.4671 25.4699V23.3322H50.4673Z" fill="#A4B830"/>
<path d="M45.6961 25.0277C49.424 25.0277 52.4461 22.4373 52.4461 19.2419C52.4461 16.0465 49.424 13.4562 45.6961 13.4562C41.9681 13.4562 38.946 16.0465 38.946 19.2419C38.946 22.4373 41.9681 25.0277 45.6961 25.0277Z" fill="#2D5872"/>
<path d="M45.6945 13.455V19.2408L50.4678 15.1494C49.1492 14.0202 47.4214 13.455 45.6945 13.455Z" fill="white"/>
<path d="M40.9213 15.15L45.6945 19.2414V13.4556C43.8305 13.455 42.1427 14.1023 40.9213 15.15Z" fill="#C2D64A"/>
<path d="M38.9438 19.2408H45.6938L40.9206 15.1494C39.6032 16.2798 38.9438 17.76 38.9438 19.2408Z" fill="white"/>
<path d="M40.9213 23.3322L45.6945 19.2408H38.9445C38.9438 20.8386 39.6998 22.2852 40.9213 23.3322Z" fill="#C2D64A"/>
<path d="M45.6945 25.0266V19.2408L40.9213 23.3322C42.2394 24.462 43.9669 25.0266 45.6945 25.0266Z" fill="white"/>
<path d="M50.4673 23.3322L45.694 19.2408V25.0266C47.558 25.0266 49.2457 24.3792 50.4673 23.3322Z" fill="#C2D64A"/>
<path d="M52.4446 19.2408H45.6945L50.4678 23.3322C51.7852 22.2024 52.4446 20.7216 52.4446 19.2408Z" fill="white"/>
<path d="M50.4673 15.15L45.694 19.2414H52.4441C52.4446 17.643 51.6887 16.197 50.4673 15.15Z" fill="#C2D64A"/>
<path d="M45.6961 23.3333C48.3323 23.3333 50.4693 21.5016 50.4693 19.242C50.4693 16.9824 48.3323 15.1506 45.6961 15.1506C43.0599 15.1506 40.9228 16.9824 40.9228 19.242C40.9228 21.5016 43.0599 23.3333 45.6961 23.3333Z" fill="#C2D64A"/>
<path d="M45.6961 22.1352C47.5603 22.1352 49.0715 20.8398 49.0715 19.242C49.0715 17.6441 47.5603 16.3487 45.6961 16.3487C43.8318 16.3487 42.3206 17.6441 42.3206 19.242C42.3206 20.8398 43.8318 22.1352 45.6961 22.1352Z" fill="white"/>
<path d="M51.9624 17.103C50.9698 14.9671 48.5401 13.455 45.6939 13.455C42.8476 13.455 40.418 14.967 39.4253 17.103H38.9436V19.2409C38.9436 20.8387 39.6989 22.2853 40.9205 23.3323C42.1419 24.3792 43.8297 25.0267 45.6937 25.0267C49.4219 25.0267 52.4438 22.4365 52.4438 19.2409V17.103C52.4439 17.103 51.9624 17.103 51.9624 17.103Z" fill="#A4B830"/>
<path d="M43.4154 21.1944H40.9213V23.3323C42.2394 24.4621 43.9669 25.0267 45.6945 25.0267V19.2409L43.4154 21.1944Z" fill="#D7ECED"/>
<path d="M52.4446 19.2408V17.1029H51.963C51.6213 16.3685 51.1075 15.7103 50.4678 15.1595V19.2407H45.6945L50.4678 23.332C51.7852 22.2023 52.4446 20.7216 52.4446 19.2408Z" fill="#D7ECED"/>
<path d="M50.4673 21.1944H47.9731L45.6939 19.2408V25.0266C47.558 25.0266 49.2457 24.3792 50.4671 23.3322V21.1944H50.4673Z" fill="#A4B830"/>
<path d="M45.6961 22.8888C49.424 22.8888 52.4461 20.2984 52.4461 17.103C52.4461 13.9076 49.424 11.3173 45.6961 11.3173C41.9681 11.3173 38.946 13.9076 38.946 17.103C38.946 20.2984 41.9681 22.8888 45.6961 22.8888Z" fill="#2D5872"/>
<path d="M45.6945 11.3171V17.1029L50.4678 13.0116C49.1492 11.8818 47.4214 11.3171 45.6945 11.3171Z" fill="white"/>
<path d="M40.9213 13.0116L45.6945 17.1029V11.3171C43.8305 11.3171 42.1427 11.9646 40.9213 13.0116Z" fill="#C2D64A"/>
<path d="M38.9438 17.103H45.6938L40.9206 13.0117C39.6032 14.1414 38.9438 15.6221 38.9438 17.103Z" fill="white"/>
<path d="M40.9213 21.1944L45.6945 17.1031H38.9445C38.9438 18.7008 39.6998 20.1473 40.9213 21.1944Z" fill="#C2D64A"/>
<path d="M45.6945 22.8888V17.1031L40.9213 21.1944C42.2394 22.3242 43.9669 22.8888 45.6945 22.8888Z" fill="white"/>
<path d="M50.4673 21.1944L45.694 17.1031V22.8888C47.558 22.8888 49.2457 22.2414 50.4673 21.1944Z" fill="#C2D64A"/>
<path d="M52.4446 17.1031H45.6945L50.4678 21.1944C51.7852 20.0646 52.4446 18.5838 52.4446 17.1031Z" fill="white"/>
<path d="M50.4673 13.0116L45.694 17.1029H52.4441C52.4446 15.5052 51.6887 14.0586 50.4673 13.0116Z" fill="#C2D64A"/>
<path d="M45.6961 21.1944C48.3323 21.1944 50.4693 19.3627 50.4693 17.1031C50.4693 14.8434 48.3323 13.0117 45.6961 13.0117C43.0599 13.0117 40.9228 14.8434 40.9228 17.1031C40.9228 19.3627 43.0599 21.1944 45.6961 21.1944Z" fill="#C2D64A"/>
<path d="M45.6961 19.9963C47.5603 19.9963 49.0715 18.7009 49.0715 17.103C49.0715 15.5052 47.5603 14.2098 45.6961 14.2098C43.8318 14.2098 42.3206 15.5052 42.3206 17.103C42.3206 18.7009 43.8318 19.9963 45.6961 19.9963Z" fill="white"/>
<path d="M38.4623 30.0577C37.4697 27.9217 35.0399 26.4096 32.1937 26.4096C29.3475 26.4096 26.9179 27.9216 25.9251 30.0577H25.4435V32.1955C25.4435 33.7933 26.1987 35.2399 27.4203 36.2869C28.6417 37.3338 30.3295 37.9813 32.1936 37.9813C35.9217 37.9813 38.9436 35.3911 38.9436 32.1955V30.0577H38.4623Z" fill="#E64500"/>
<path d="M29.9152 34.149H27.421V36.2869C28.7391 37.4167 30.4667 37.9813 32.1943 37.9813V32.1955L29.9152 34.149Z" fill="#D7ECED"/>
<path d="M38.9438 32.1954V30.0575H38.4621C38.1205 29.3231 37.6067 28.6649 36.967 28.1141V32.1953H32.1937L36.967 36.2866C38.2851 35.157 38.9438 33.6762 38.9438 32.1954Z" fill="#D7ECED"/>
<path d="M36.967 34.149H34.4728L32.1936 32.1954V37.9812C34.0577 37.9812 35.7454 37.3338 36.9669 36.2868V34.149H36.967Z" fill="#E64500"/>
<path d="M32.1937 35.8458C35.9216 35.8458 38.9438 33.2554 38.9438 30.06C38.9438 26.8646 35.9216 24.2742 32.1937 24.2742C28.4657 24.2742 25.4436 26.8646 25.4436 30.06C25.4436 33.2554 28.4657 35.8458 32.1937 35.8458Z" fill="#2D5872"/>
<path d="M32.1937 24.2718V30.0575L36.967 25.9662C35.6489 24.837 33.9213 24.2718 32.1937 24.2718Z" fill="white"/>
<path d="M27.4211 25.9662L32.1944 30.0575V24.2718C30.3295 24.2718 28.6426 24.9192 27.4211 25.9662Z" fill="#FC611F"/>
<path d="M25.4436 30.0577H32.1937L27.4204 25.9663C26.103 27.096 25.4436 28.5768 25.4436 30.0577Z" fill="white"/>
<path d="M27.4211 34.149L32.1944 30.0577H25.4443C25.4436 31.6554 26.1989 33.1019 27.4211 34.149Z" fill="#FC611F"/>
<path d="M32.1937 35.8434V30.0577L27.4204 34.149C28.7385 35.2788 30.4661 35.8434 32.1937 35.8434Z" fill="white"/>
<path d="M36.967 34.149L32.1937 30.0577V35.8434C34.0577 35.8434 35.7455 35.196 36.967 34.149Z" fill="#FC611F"/>
<path d="M38.9438 30.0577H32.1937L36.967 34.149C38.2851 33.0192 38.9438 31.5384 38.9438 30.0577Z" fill="white"/>
<path d="M36.967 25.9662L32.1937 30.0575H38.9438C38.9438 28.4598 38.1886 27.0132 36.967 25.9662Z" fill="#FC611F"/>
<path d="M32.1937 34.1514C34.8299 34.1514 36.967 32.3196 36.967 30.06C36.967 27.8004 34.8299 25.9686 32.1937 25.9686C29.5575 25.9686 27.4204 27.8004 27.4204 30.06C27.4204 32.3196 29.5575 34.1514 32.1937 34.1514Z" fill="#FC611F"/>
<path d="M32.1937 32.9532C34.0579 32.9532 35.5692 31.6579 35.5692 30.06C35.5692 28.4621 34.0579 27.1668 32.1937 27.1668C30.3295 27.1668 28.8183 28.4621 28.8183 30.06C28.8183 31.6579 30.3295 32.9532 32.1937 32.9532Z" fill="white"/>
<path d="M38.4623 27.9198C37.4697 25.7838 35.0399 24.2718 32.1937 24.2718C29.3475 24.2718 26.9179 25.7837 25.9251 27.9198H25.4435V30.0577C25.4435 31.6555 26.1987 33.1021 27.4203 34.149C28.6417 35.196 30.3295 35.8434 32.1936 35.8434C35.9217 35.8434 38.9436 33.2532 38.9436 30.0577V27.9198H38.4623Z" fill="#E64500"/>
<path d="M29.9152 32.0112H27.421V34.149C28.7391 35.2788 30.4667 35.8434 32.1943 35.8434V30.0577L29.9152 32.0112Z" fill="#D7ECED"/>
<path d="M38.9438 30.0577V27.9198H38.4621C38.1205 27.1854 37.6067 26.5272 36.967 25.9764V30.0575H32.1937L36.967 34.1489C38.2851 33.0192 38.9438 31.5384 38.9438 30.0577Z" fill="#D7ECED"/>
<path d="M36.967 32.0112H34.4728L32.1936 30.0575V35.8433C34.0577 35.8433 35.7454 35.196 36.9669 34.1489V32.0112H36.967Z" fill="#E64500"/>
<path d="M32.1937 33.7056C35.9216 33.7056 38.9438 31.1152 38.9438 27.9198C38.9438 24.7244 35.9216 22.134 32.1937 22.134C28.4657 22.134 25.4436 24.7244 25.4436 27.9198C25.4436 31.1152 28.4657 33.7056 32.1937 33.7056Z" fill="#2D5872"/>
<path d="M32.1937 22.134V27.9198L36.967 23.8284C35.6489 22.6986 33.9213 22.134 32.1937 22.134Z" fill="white"/>
<path d="M27.4211 23.8284L32.1944 27.9198V22.134C30.3295 22.134 28.6426 22.7814 27.4211 23.8284Z" fill="#FC611F"/>
<path d="M25.4436 27.9198H32.1937L27.4204 23.8284C26.103 24.9582 25.4436 26.439 25.4436 27.9198Z" fill="white"/>
<path d="M27.4211 32.0112L32.1944 27.9198H25.4443C25.4436 29.5177 26.1989 30.9642 27.4211 32.0112Z" fill="#FC611F"/>
<path d="M32.1937 33.7056V27.9198L27.4204 32.0112C28.7385 33.141 30.4661 33.7056 32.1937 33.7056Z" fill="white"/>
<path d="M36.967 32.0112L32.1937 27.9198V33.7056C34.0577 33.7056 35.7455 33.0582 36.967 32.0112Z" fill="#FC611F"/>
<path d="M38.9438 27.9198H32.1937L36.967 32.0112C38.2851 30.8814 38.9438 29.4006 38.9438 27.9198Z" fill="white"/>
<path d="M36.967 23.8284L32.1937 27.9198H38.9438C38.9438 26.3219 38.1886 24.8754 36.967 23.8284Z" fill="#FC611F"/>
<path d="M32.1937 32.0112C34.8299 32.0112 36.967 30.1794 36.967 27.9198C36.967 25.6602 34.8299 23.8284 32.1937 23.8284C29.5575 23.8284 27.4204 25.6602 27.4204 27.9198C27.4204 30.1794 29.5575 32.0112 32.1937 32.0112Z" fill="#FC611F"/>
<path d="M32.1937 30.813C34.0579 30.813 35.5692 29.5177 35.5692 27.9198C35.5692 26.3219 34.0579 25.0266 32.1937 25.0266C30.3295 25.0266 28.8183 26.3219 28.8183 27.9198C28.8183 29.5177 30.3295 30.813 32.1937 30.813Z" fill="white"/>
<path d="M38.4623 25.7819C37.4697 23.646 35.0399 22.1339 32.1937 22.1339C29.3475 22.1339 26.9179 23.6459 25.9251 25.7819H25.4435V27.9198C25.4435 29.5177 26.1987 30.9642 27.4203 32.0112C28.6417 33.0581 30.3295 33.7056 32.1936 33.7056C35.9217 33.7056 38.9436 31.1154 38.9436 27.9198V25.7819H38.4623V25.7819Z" fill="#E64500"/>
<path d="M29.9152 29.8729H27.421V32.0107C28.7391 33.1405 30.4667 33.7051 32.1943 33.7051V27.9193L29.9152 29.8729Z" fill="#D7ECED"/>
<path d="M38.9438 27.9198V25.782H38.4621C38.1205 25.0475 37.6067 24.3893 36.967 23.8385V27.9197H32.1937L36.967 32.0111C38.2851 30.8814 38.9438 29.4006 38.9438 27.9198Z" fill="#D7ECED"/>
<path d="M36.967 29.8729H34.4728L32.1936 27.9192V33.705C34.0577 33.705 35.7454 33.0577 36.9669 32.0106V29.8729H36.967Z" fill="#E64500"/>
<path d="M32.1937 31.5677C35.9216 31.5677 38.9438 28.9774 38.9438 25.782C38.9438 22.5866 35.9216 19.9962 32.1937 19.9962C28.4657 19.9962 25.4436 22.5866 25.4436 25.782C25.4436 28.9774 28.4657 31.5677 32.1937 31.5677Z" fill="#2D5872"/>
<path d="M32.1937 19.9962V25.782L36.967 21.6906C35.6489 20.5608 33.9213 19.9962 32.1937 19.9962Z" fill="white"/>
<path d="M27.4211 21.6906L32.1944 25.782V19.9962C30.3295 19.9962 28.6426 20.6436 27.4211 21.6906Z" fill="#FC611F"/>
<path d="M25.4436 25.782H32.1937L27.4204 21.6906C26.103 22.8204 25.4436 24.3012 25.4436 25.782Z" fill="white"/>
<path d="M27.4211 29.8728L32.1944 25.7815H25.4443C25.4436 27.3798 26.1989 28.8258 27.4211 29.8728Z" fill="#FC611F"/>
<path d="M32.1937 31.5679V25.7821L27.4204 29.8734C28.7385 31.0027 30.4661 31.5679 32.1937 31.5679Z" fill="white"/>
<path d="M36.967 29.8728L32.1937 25.7815V31.5673C34.0577 31.5678 35.7455 30.9198 36.967 29.8728Z" fill="#FC611F"/>
<path d="M38.9438 25.782H32.1937L36.967 29.8733C38.2851 28.7431 38.9438 27.2629 38.9438 25.782Z" fill="white"/>
<path d="M36.967 21.6906L32.1937 25.782H38.9438C38.9438 24.1842 38.1886 22.7377 36.967 21.6906Z" fill="#FC611F"/>
<path d="M32.1937 29.8733C34.8299 29.8733 36.967 28.0416 36.967 25.782C36.967 23.5224 34.8299 21.6906 32.1937 21.6906C29.5575 21.6906 27.4204 23.5224 27.4204 25.782C27.4204 28.0416 29.5575 29.8733 32.1937 29.8733Z" fill="#FC611F"/>
<path d="M32.1937 28.6752C34.0579 28.6752 35.5692 27.3798 35.5692 25.782C35.5692 24.1841 34.0579 22.8887 32.1937 22.8887C30.3295 22.8887 28.8183 24.1841 28.8183 25.782C28.8183 27.3798 30.3295 28.6752 32.1937 28.6752Z" fill="white"/>
<path d="M38.4623 23.6436C37.4697 21.5077 35.0399 19.9956 32.1937 19.9956C29.3475 19.9956 26.9179 21.5076 25.9251 23.6436H25.4435V25.7815C25.4435 27.3794 26.1987 28.8259 27.4203 29.8729C28.6417 30.9198 30.3295 31.5673 32.1936 31.5673C35.9217 31.5673 38.9436 28.9771 38.9436 25.7815V23.6436H38.4623Z" fill="#E64500"/>
<path d="M29.9152 27.735H27.421V29.8729C28.7391 31.0027 30.4667 31.5673 32.1943 31.5673V25.7821L29.9152 27.735Z" fill="#D7ECED"/>
<path d="M38.9438 25.7819V23.6441H38.4621C38.1205 22.9097 37.6067 22.2514 36.967 21.7007V25.7818H32.1937L36.967 29.8732C38.2851 28.743 38.9438 27.2621 38.9438 25.7819Z" fill="#D7ECED"/>
<path d="M36.967 27.735H34.4728L32.1936 25.7814V31.5672C34.0577 31.5672 35.7454 30.9198 36.9669 29.8727V27.735H36.967Z" fill="#E64500"/>
<path d="M32.1937 29.4318C35.9216 29.4318 38.9438 26.8414 38.9438 23.646C38.9438 20.4506 35.9216 17.8602 32.1937 17.8602C28.4657 17.8602 25.4436 20.4506 25.4436 23.646C25.4436 26.8414 28.4657 29.4318 32.1937 29.4318Z" fill="#2D5872"/>
<path d="M32.1937 17.8579V23.6436L36.967 19.5523C35.6489 18.4231 33.9213 17.8579 32.1937 17.8579Z" fill="white"/>
<path d="M27.4211 19.5528L32.1944 23.6442V17.8584C30.3295 17.8579 28.6426 18.5058 27.4211 19.5528Z" fill="#FC611F"/>
<path d="M25.4436 23.6436H32.1937L27.4204 19.5523C26.103 20.6827 25.4436 22.1634 25.4436 23.6436Z" fill="white"/>
<path d="M27.4211 27.735L32.1944 23.6436H25.4443C25.4436 25.2414 26.1989 26.688 27.4211 27.735Z" fill="#FC611F"/>
<path d="M32.1937 29.43V23.6442L27.4204 27.7356C28.7385 28.8648 30.4661 29.43 32.1937 29.43Z" fill="white"/>
<path d="M36.967 27.735L32.1937 23.6436V29.4294C34.0577 29.43 35.7455 28.782 36.967 27.735Z" fill="#FC611F"/>
<path d="M38.9438 23.6436H32.1937L36.967 27.735C38.2851 26.6052 38.9438 25.1244 38.9438 23.6436Z" fill="white"/>
<path d="M36.967 19.5529L32.1937 23.6442H38.9438C38.9438 22.0464 38.1886 20.5998 36.967 19.5529Z" fill="#FC611F"/>
<path d="M32.1937 27.7373C34.8299 27.7373 36.967 25.9056 36.967 23.646C36.967 21.3864 34.8299 19.5546 32.1937 19.5546C29.5575 19.5546 27.4204 21.3864 27.4204 23.646C27.4204 25.9056 29.5575 27.7373 32.1937 27.7373Z" fill="#FC611F"/>
<path d="M32.1937 26.5392C34.0579 26.5392 35.5692 25.2439 35.5692 23.646C35.5692 22.0481 34.0579 20.7527 32.1937 20.7527C30.3295 20.7527 28.8183 22.0481 28.8183 23.646C28.8183 25.2439 30.3295 26.5392 32.1937 26.5392Z" fill="white"/>
<path d="M38.4623 21.5058C37.4697 19.3698 35.0399 17.8577 32.1937 17.8577C29.3475 17.8577 26.9179 19.3697 25.9251 21.5058H25.4435V23.6436C25.4435 25.2415 26.1987 26.6881 27.4203 27.735C28.6417 28.782 30.3295 29.4294 32.1936 29.4294C35.9217 29.4294 38.9436 26.8392 38.9436 23.6436V21.5058H38.4623V21.5058Z" fill="#E64500"/>
<path d="M29.9152 25.5971H27.421V27.735C28.7391 28.8648 30.4667 29.4294 32.1943 29.4294V23.6436L29.9152 25.5971Z" fill="#D7ECED"/>
<path d="M38.9438 23.6436V21.5058H38.4621C38.1205 20.7714 37.6067 20.1131 36.967 19.5623V23.6435H32.1937L36.967 27.7349C38.2851 26.6052 38.9438 25.1244 38.9438 23.6436Z" fill="#D7ECED"/>
<path d="M36.967 25.5971H34.4728L32.1936 23.6435V29.4293C34.0577 29.4293 35.7454 28.782 36.9669 27.7349V25.5971H36.967Z" fill="#E64500"/>
<path d="M32.1937 27.2915C35.9216 27.2915 38.9438 24.7012 38.9438 21.5058C38.9438 18.3104 35.9216 15.72 32.1937 15.72C28.4657 15.72 25.4436 18.3104 25.4436 21.5058C25.4436 24.7012 28.4657 27.2915 32.1937 27.2915Z" fill="#2D5872"/>
<path d="M32.1937 15.72V21.5058L36.967 17.4144C35.6489 16.2852 33.9213 15.72 32.1937 15.72Z" fill="white"/>
<path d="M27.4211 17.4144L32.1944 21.5058V15.72C30.3295 15.72 28.6426 16.3673 27.4211 17.4144Z" fill="#FC611F"/>
<path d="M25.4436 21.5058H32.1937L27.4204 17.4144C26.103 18.5442 25.4436 20.025 25.4436 21.5058Z" fill="white"/>
<path d="M27.4211 25.5971L32.1944 21.5058H25.4443C25.4436 23.1036 26.1989 24.5502 27.4211 25.5971Z" fill="#FC611F"/>
<path d="M32.1937 27.2916V21.5058L27.4204 25.5971C28.7385 26.727 30.4661 27.2916 32.1937 27.2916Z" fill="white"/>
<path d="M36.967 25.5971L32.1937 21.5058V27.2916C34.0577 27.2916 35.7455 26.6442 36.967 25.5971Z" fill="#FC611F"/>
<path d="M38.9438 21.5058H32.1937L36.967 25.5971C38.2851 24.4673 38.9438 22.9866 38.9438 21.5058Z" fill="white"/>
<path d="M36.967 17.4144L32.1937 21.5058H38.9438C38.9438 19.908 38.1886 18.4614 36.967 17.4144Z" fill="#FC611F"/>
<path d="M32.1937 25.5971C34.8299 25.5971 36.967 23.7654 36.967 21.5058C36.967 19.2462 34.8299 17.4144 32.1937 17.4144C29.5575 17.4144 27.4204 19.2462 27.4204 21.5058C27.4204 23.7654 29.5575 25.5971 32.1937 25.5971Z" fill="#FC611F"/>
<path d="M32.1937 24.399C34.0579 24.399 35.5692 23.1037 35.5692 21.5058C35.5692 19.9079 34.0579 18.6125 32.1937 18.6125C30.3295 18.6125 28.8183 19.9079 28.8183 21.5058C28.8183 23.1037 30.3295 24.399 32.1937 24.399Z" fill="white"/>
<path d="M38.4623 19.368C37.4697 17.2321 35.0399 15.72 32.1937 15.72C29.3475 15.72 26.9179 17.2319 25.9251 19.368H25.4435V21.5059C25.4435 23.1037 26.1987 24.5503 27.4203 25.5973C28.6417 26.6442 30.3295 27.2917 32.1936 27.2917C35.9217 27.2917 38.9436 24.7015 38.9436 21.5059V19.368H38.4623Z" fill="#E64500"/>
<path d="M29.9152 23.4594H27.421V25.5973C28.7391 26.7271 30.4667 27.2917 32.1943 27.2917V21.5059L29.9152 23.4594Z" fill="#D7ECED"/>
<path d="M38.9438 21.5058V19.3679H38.4621C38.1205 18.6335 37.6067 17.9753 36.967 17.4245V21.5057H32.1937L36.967 25.597C38.2851 24.4673 38.9438 22.9866 38.9438 21.5058Z" fill="#D7ECED"/>
<path d="M36.967 23.4594H34.4728L32.1936 21.5058V27.2916C34.0577 27.2916 35.7454 26.6442 36.9669 25.5971V23.4594H36.967Z" fill="#E64500"/>
<path d="M32.1937 25.1538C35.9216 25.1538 38.9438 22.5634 38.9438 19.368C38.9438 16.1726 35.9216 13.5823 32.1937 13.5823C28.4657 13.5823 25.4436 16.1726 25.4436 19.368C25.4436 22.5634 28.4657 25.1538 32.1937 25.1538Z" fill="#2D5872"/>
<path d="M32.1937 13.5821V19.3679L36.967 15.2766C35.6489 14.1468 33.9213 13.5821 32.1937 13.5821Z" fill="white"/>
<path d="M27.4211 15.2766L32.1944 19.3679V13.5821C30.3295 13.5821 28.6426 14.2296 27.4211 15.2766Z" fill="#FC611F"/>
<path d="M25.4436 19.368H32.1937L27.4204 15.2767C26.103 16.4064 25.4436 17.8871 25.4436 19.368Z" fill="white"/>
<path d="M27.4211 23.4594L32.1944 19.368H25.4443C25.4436 20.9658 26.1989 22.4124 27.4211 23.4594Z" fill="#FC611F"/>
<path d="M32.1937 25.1538V19.368L27.4204 23.4594C28.7385 24.5892 30.4661 25.1538 32.1937 25.1538Z" fill="white"/>
<path d="M36.967 23.4594L32.1937 19.368V25.1538C34.0577 25.1538 35.7455 24.5064 36.967 23.4594Z" fill="#FC611F"/>
<path d="M38.9438 19.368H32.1937L36.967 23.4594C38.2851 22.3296 38.9438 20.8488 38.9438 19.368Z" fill="white"/>
<path d="M36.967 15.2766L32.1937 19.3679H38.9438C38.9438 17.7702 38.1886 16.3236 36.967 15.2766Z" fill="#FC611F"/>
<path d="M32.1937 23.4594C34.8299 23.4594 36.967 21.6276 36.967 19.368C36.967 17.1084 34.8299 15.2767 32.1937 15.2767C29.5575 15.2767 27.4204 17.1084 27.4204 19.368C27.4204 21.6276 29.5575 23.4594 32.1937 23.4594Z" fill="#FC611F"/>
<path d="M32.1937 22.2613C34.0579 22.2613 35.5692 20.9659 35.5692 19.368C35.5692 17.7701 34.0579 16.4748 32.1937 16.4748C30.3295 16.4748 28.8183 17.7701 28.8183 19.368C28.8183 20.9659 30.3295 22.2613 32.1937 22.2613Z" fill="white"/>
<path d="M38.4623 17.2302C37.4697 15.0942 35.0399 13.5821 32.1937 13.5821C29.3475 13.5821 26.9179 15.0941 25.9251 17.2302H25.4435V19.368C25.4435 20.9659 26.1987 22.4125 27.4203 23.4594C28.6417 24.5064 30.3295 25.1538 32.1936 25.1538C35.9217 25.1538 38.9436 22.5636 38.9436 19.368V17.2302H38.4623Z" fill="#E64500"/>
<path d="M29.9152 21.321H27.421V23.4588C28.7391 24.5886 30.4667 25.1533 32.1943 25.1533V19.368L29.9152 21.321Z" fill="#D7ECED"/>
<path d="M38.9438 19.368V17.2302H38.4621C38.1205 16.4958 37.6067 15.8375 36.967 15.2867V19.3679H32.1937L36.967 23.4593C38.2851 22.3296 38.9438 20.8488 38.9438 19.368Z" fill="#D7ECED"/>
<path d="M36.967 21.321H34.4728L32.1936 19.3673V25.1531C34.0577 25.1531 35.7454 24.5058 36.9669 23.4587V21.321H36.967Z" fill="#E64500"/>
<path d="M32.1937 23.016C35.9216 23.016 38.9438 20.4256 38.9438 17.2302C38.9438 14.0348 35.9216 11.4444 32.1937 11.4444C28.4657 11.4444 25.4436 14.0348 25.4436 17.2302C25.4436 20.4256 28.4657 23.016 32.1937 23.016Z" fill="#2D5872"/>
<path d="M32.1937 11.4444V17.2302L36.967 13.1388C35.6489 12.009 33.9213 11.4444 32.1937 11.4444Z" fill="white"/>
<path d="M27.4211 13.1388L32.1944 17.2302V11.4444C30.3295 11.4444 28.6426 12.0918 27.4211 13.1388Z" fill="#FC611F"/>
<path d="M25.4436 17.2302H32.1937L27.4204 13.1388C26.103 14.2686 25.4436 15.7494 25.4436 17.2302Z" fill="white"/>
<path d="M27.4211 21.321L32.1944 17.2296H25.4443C25.4436 18.828 26.1989 20.274 27.4211 21.321Z" fill="#FC611F"/>
<path d="M32.1937 23.016V17.2302L27.4204 21.3216C28.7385 22.4508 30.4661 23.016 32.1937 23.016Z" fill="white"/>
<path d="M36.967 21.321L32.1937 17.2296V23.0154C34.0577 23.016 35.7455 22.368 36.967 21.321Z" fill="#FC611F"/>
<path d="M38.9438 17.2302H32.1937L36.967 21.3216C38.2851 20.1912 38.9438 18.711 38.9438 17.2302Z" fill="white"/>
<path d="M36.967 13.1388L32.1937 17.2302H38.9438C38.9438 15.6323 38.1886 14.1858 36.967 13.1388Z" fill="#FC611F"/>
<path d="M32.1937 21.3216C34.8299 21.3216 36.967 19.4898 36.967 17.2302C36.967 14.9706 34.8299 13.1388 32.1937 13.1388C29.5575 13.1388 27.4204 14.9706 27.4204 17.2302C27.4204 19.4898 29.5575 21.3216 32.1937 21.3216Z" fill="#FC611F"/>
<path d="M32.1937 20.1234C34.0579 20.1234 35.5692 18.8281 35.5692 17.2302C35.5692 15.6323 34.0579 14.337 32.1937 14.337C30.3295 14.337 28.8183 15.6323 28.8183 17.2302C28.8183 18.8281 30.3295 20.1234 32.1937 20.1234Z" fill="white"/>
<path d="M38.4623 15.0918C37.4697 12.9558 35.0399 11.4437 32.1937 11.4437C29.3475 11.4437 26.9179 12.9557 25.9251 15.0918H25.4435V17.2296C25.4435 18.8275 26.1987 20.274 27.4203 21.321C28.6417 22.3679 30.3295 23.0154 32.1936 23.0154C35.9217 23.0154 38.9436 20.4252 38.9436 17.2296V15.0918C38.9438 15.0918 38.4623 15.0918 38.4623 15.0918Z" fill="#E64500"/>
<path d="M29.9152 19.1832H27.421V21.3211C28.7391 22.4509 30.4667 23.0155 32.1943 23.0155V17.2297L29.9152 19.1832Z" fill="#D7ECED"/>
<path d="M38.9438 17.2302V15.0923H38.4621C38.1205 14.3579 37.6067 13.6997 36.967 13.1489V17.2301H32.1937L36.967 21.3214C38.2851 20.1912 38.9438 18.7104 38.9438 17.2302Z" fill="#D7ECED"/>
<path d="M36.967 19.1832H34.4728L32.1936 17.2296V23.0154C34.0577 23.0154 35.7454 22.368 36.9669 21.321V19.1832H36.967Z" fill="#E64500"/>
<path d="M32.1937 20.8758C35.9216 20.8758 38.9438 18.2854 38.9438 15.09C38.9438 11.8946 35.9216 9.30423 32.1937 9.30423C28.4657 9.30423 25.4436 11.8946 25.4436 15.09C25.4436 18.2854 28.4657 20.8758 32.1937 20.8758Z" fill="#2D5872"/>
<path d="M32.1937 9.30544V15.0912L36.967 10.9999C35.6489 9.87064 33.9213 9.30544 32.1937 9.30544Z" fill="white"/>
<path d="M27.4211 11.0003L32.1944 15.0917V9.30586C30.3295 9.30527 28.6426 9.95332 27.4211 11.0003Z" fill="#FC611F"/>
<path d="M25.4436 15.0918H32.1937L27.4204 11.0004C26.103 12.1308 25.4436 13.6116 25.4436 15.0918Z" fill="white"/>
<path d="M27.4211 19.1832L32.1944 15.0919H25.4443C25.4436 16.6896 26.1989 18.1362 27.4211 19.1832Z" fill="#FC611F"/>
<path d="M32.1937 20.8782V15.0925L27.4204 19.1838C28.7385 20.313 30.4661 20.8782 32.1937 20.8782Z" fill="white"/>
<path d="M36.967 19.1832L32.1937 15.0919V20.8777C34.0577 20.8782 35.7455 20.2302 36.967 19.1832Z" fill="#FC611F"/>
<path d="M38.9438 15.0918H32.1937L36.967 19.1831C38.2851 18.0534 38.9438 16.5727 38.9438 15.0918Z" fill="white"/>
<path d="M36.967 11.001L32.1937 15.0923H38.9438C38.9438 13.4946 38.1886 12.048 36.967 11.001Z" fill="#FC611F"/>
<path d="M32.1937 19.1814C34.8299 19.1814 36.967 17.3496 36.967 15.09C36.967 12.8304 34.8299 10.9986 32.1937 10.9986C29.5575 10.9986 27.4204 12.8304 27.4204 15.09C27.4204 17.3496 29.5575 19.1814 32.1937 19.1814Z" fill="#FC611F"/>
<path d="M32.1937 17.9832C34.0579 17.9832 35.5692 16.6879 35.5692 15.09C35.5692 13.4921 34.0579 12.1968 32.1937 12.1968C30.3295 12.1968 28.8183 13.4921 28.8183 15.09C28.8183 16.6879 30.3295 17.9832 32.1937 17.9832Z" fill="white"/>
<path d="M45.2124 38.0058C44.2198 35.8698 41.79 34.3577 38.9438 34.3577C36.0976 34.3577 33.6679 35.8697 32.6752 38.0058H32.1936V40.1436C32.1936 41.7415 32.9488 43.1881 34.1704 44.235C35.3918 45.282 37.0796 45.9294 38.9437 45.9294C42.6719 45.9294 45.6938 43.3392 45.6938 40.1436V38.0058H45.2124Z" fill="#0F303F"/>
<path d="M36.6652 42.0971H34.1711V44.235C35.4892 45.3648 37.2168 45.9294 38.9443 45.9294V40.1436L36.6652 42.0971Z" fill="#D7ECED"/>
<path d="M45.6938 40.1436V38.0058H45.2122C44.8705 37.2714 44.3567 36.6131 43.717 36.0623V40.1435H38.9438L43.717 44.2349C45.0351 43.1052 45.6945 41.6244 45.6938 40.1436Z" fill="#D7ECED"/>
<path d="M43.717 42.0971H41.2229L38.9436 40.1435V45.9293C40.8078 45.9293 42.4955 45.282 43.7169 44.2349V42.0971H43.717Z" fill="#0F303F"/>
<path d="M38.9438 43.7898C42.6717 43.7898 45.6938 41.1994 45.6938 38.004C45.6938 34.8086 42.6717 32.2182 38.9438 32.2182C35.2158 32.2182 32.1937 34.8086 32.1937 38.004C32.1937 41.1994 35.2158 43.7898 38.9438 43.7898Z" fill="#2D5872"/>
<path d="M38.9438 32.22V38.0058L43.7171 33.9144C42.399 32.7852 40.6714 32.22 38.9438 32.22Z" fill="white"/>
<path d="M34.1712 33.915L38.9445 38.0064V32.2206C37.0798 32.22 35.3927 32.8673 34.1712 33.915Z" fill="#2D5872"/>
<path d="M32.1937 38.0058H38.9438L34.1705 33.9144C32.8531 35.0448 32.1937 36.525 32.1937 38.0058Z" fill="white"/>
<path d="M34.1712 42.0971L38.9445 38.0058H32.1944C32.1937 39.6036 32.9498 41.0502 34.1712 42.0971Z" fill="#2D5872"/>
<path d="M38.9438 43.7916V38.0058L34.1705 42.0972C35.4893 43.227 37.2162 43.7916 38.9438 43.7916Z" fill="white"/>
<path d="M43.7171 42.0972L38.9438 38.0058V43.7916C40.808 43.7916 42.4956 43.1442 43.7171 42.0972Z" fill="#2D5872"/>
<path d="M45.6945 38.0058H38.9445L43.7177 42.0971C45.0351 40.9674 45.6945 39.4866 45.6945 38.0058Z" fill="white"/>
<path d="M43.717 33.915L38.9438 38.0064H45.6938C45.6938 36.4081 44.9386 34.962 43.717 33.915Z" fill="#2D5872"/>
<path d="M38.9438 42.0954C41.58 42.0954 43.7171 40.2636 43.7171 38.004C43.7171 35.7444 41.58 33.9127 38.9438 33.9127C36.3076 33.9127 34.1705 35.7444 34.1705 38.004C34.1705 40.2636 36.3076 42.0954 38.9438 42.0954Z" fill="#2D5872"/>
<path d="M38.9438 40.8973C40.808 40.8973 42.3192 39.6019 42.3192 38.004C42.3192 36.4061 40.808 35.1108 38.9438 35.1108C37.0796 35.1108 35.5683 36.4061 35.5683 38.004C35.5683 39.6019 37.0796 40.8973 38.9438 40.8973Z" fill="white"/>
<path d="M45.2124 35.8681C44.2198 33.7321 41.79 32.22 38.9438 32.22C36.0976 32.22 33.6679 33.732 32.6752 35.8681H32.1936V38.0059C32.1936 39.6038 32.9488 41.0503 34.1704 42.0973C35.3918 43.1442 37.0796 43.7917 38.9437 43.7917C42.6719 43.7917 45.6938 41.2015 45.6938 38.0059V35.8681H45.2124Z" fill="#0F303F"/>
<path d="M36.6652 39.9594H34.1711V42.0972C35.4892 43.227 37.2168 43.7917 38.9443 43.7917V38.0059L36.6652 39.9594Z" fill="#D7ECED"/>
<path d="M45.6938 38.0058V35.8679H45.2122C44.8705 35.1335 44.3567 34.4753 43.717 33.9245V38.0057H38.9438L43.717 42.097C45.0351 40.9673 45.6945 39.4865 45.6938 38.0058Z" fill="#D7ECED"/>
<path d="M43.717 39.9594H41.2229L38.9436 38.0058V43.7916C40.8078 43.7916 42.4955 43.1441 43.7169 42.0972V39.9594H43.717Z" fill="#0F303F"/>
<path d="M38.9438 41.6538C42.6717 41.6538 45.6938 39.0634 45.6938 35.868C45.6938 32.6726 42.6717 30.0823 38.9438 30.0823C35.2158 30.0823 32.1937 32.6726 32.1937 35.868C32.1937 39.0634 35.2158 41.6538 38.9438 41.6538Z" fill="#2D5872"/>
<path d="M38.9438 30.0821V35.8679L43.7171 31.7766C42.399 30.6468 40.6714 30.0821 38.9438 30.0821Z" fill="white"/>
<path d="M34.1712 31.7766L38.9445 35.8679V30.0821C37.0798 30.0821 35.3927 30.7296 34.1712 31.7766Z" fill="#2D5872"/>
<path d="M32.1937 35.8681H38.9438L34.1705 31.7767C32.8531 32.9064 32.1937 34.3872 32.1937 35.8681Z" fill="white"/>
<path d="M34.1712 39.9594L38.9445 35.868H32.1944C32.1937 37.4658 32.9498 38.9123 34.1712 39.9594Z" fill="#2D5872"/>
<path d="M38.9438 41.6538V35.868L34.1705 39.9594C35.4893 41.0892 37.2162 41.6538 38.9438 41.6538Z" fill="white"/>
<path d="M43.7171 39.9594L38.9438 35.868V41.6538C40.808 41.6538 42.4956 41.0064 43.7171 39.9594Z" fill="#2D5872"/>
<path d="M45.6945 35.868H38.9445L43.7177 39.9594C45.0351 38.8296 45.6945 37.3488 45.6945 35.868Z" fill="white"/>
<path d="M43.717 31.7766L38.9438 35.8679H45.6938C45.6938 34.2702 44.9386 32.8236 43.717 31.7766Z" fill="#2D5872"/>
<path d="M38.9438 39.9594C41.58 39.9594 43.7171 38.1276 43.7171 35.868C43.7171 33.6084 41.58 31.7767 38.9438 31.7767C36.3076 31.7767 34.1705 33.6084 34.1705 35.868C34.1705 38.1276 36.3076 39.9594 38.9438 39.9594Z" fill="#2D5872"/>
<path d="M38.9438 38.7613C40.808 38.7613 42.3192 37.4659 42.3192 35.868C42.3192 34.2701 40.808 32.9748 38.9438 32.9748C37.0796 32.9748 35.5683 34.2701 35.5683 35.868C35.5683 37.4659 37.0796 38.7613 38.9438 38.7613Z" fill="white"/>
<path d="M45.2124 33.7302C44.2198 31.5942 41.79 30.0821 38.9438 30.0821C36.0976 30.0821 33.6679 31.5941 32.6752 33.7302H32.1936V35.868C32.1936 37.4659 32.9488 38.9125 34.1704 39.9594C35.3918 41.0064 37.0796 41.6538 38.9437 41.6538C42.6719 41.6538 45.6938 39.0636 45.6938 35.868V33.7302H45.2124Z" fill="#0F303F"/>
<path d="M36.6652 37.8216H34.1711V39.9594C35.4892 41.0892 37.2168 41.6538 38.9443 41.6538V35.868L36.6652 37.8216Z" fill="#D7ECED"/>
<path d="M45.6938 35.868V33.7302H45.2122C44.8705 32.9958 44.3567 32.3375 43.717 31.7868V35.8679H38.9438L43.717 39.9593C45.0351 38.8296 45.6945 37.3488 45.6938 35.868Z" fill="#D7ECED"/>
<path d="M43.717 37.8216H41.2229L38.9436 35.8679V41.6537C40.8078 41.6537 42.4955 41.0063 43.7169 39.9593V37.8216H43.717Z" fill="#0F303F"/>
<path d="M38.9438 39.5177C42.6717 39.5177 45.6938 36.9274 45.6938 33.732C45.6938 30.5366 42.6717 27.9462 38.9438 27.9462C35.2158 27.9462 32.1937 30.5366 32.1937 33.732C32.1937 36.9274 35.2158 39.5177 38.9438 39.5177Z" fill="#2D5872"/>
<path d="M38.9438 27.9444V33.7302L43.7171 29.6388C42.399 28.509 40.6714 27.9444 38.9438 27.9444Z" fill="white"/>
<path d="M34.1712 29.6388L38.9445 33.7302V27.9444C37.0798 27.9444 35.3927 28.5918 34.1712 29.6388Z" fill="#2D5872"/>
<path d="M32.1937 33.7302H38.9438L34.1705 29.6388C32.8531 30.7686 32.1937 32.2494 32.1937 33.7302Z" fill="white"/>
<path d="M34.1712 37.8216L38.9445 33.7302H32.1944C32.1937 35.328 32.9498 36.7746 34.1712 37.8216Z" fill="#2D5872"/>
<path d="M38.9438 39.516V33.7302L34.1705 37.8216C35.4893 38.9514 37.2162 39.516 38.9438 39.516Z" fill="white"/>
<path d="M43.7171 37.8216L38.9438 33.7302V39.516C40.808 39.516 42.4956 38.8686 43.7171 37.8216Z" fill="#2D5872"/>
<path d="M45.6945 33.7302H38.9445L43.7177 37.8216C45.0351 36.6918 45.6945 35.211 45.6945 33.7302Z" fill="white"/>
<path d="M43.717 29.6388L38.9438 33.7302H45.6938C45.6938 32.1323 44.9386 30.6858 43.717 29.6388Z" fill="#2D5872"/>
<path d="M38.9438 37.8233C41.58 37.8233 43.7171 35.9916 43.7171 33.732C43.7171 31.4724 41.58 29.6406 38.9438 29.6406C36.3076 29.6406 34.1705 31.4724 34.1705 33.732C34.1705 35.9916 36.3076 37.8233 38.9438 37.8233Z" fill="#2D5872"/>
<path d="M38.9438 36.6252C40.808 36.6252 42.3192 35.3298 42.3192 33.732C42.3192 32.1341 40.808 30.8387 38.9438 30.8387C37.0796 30.8387 35.5683 32.1341 35.5683 33.732C35.5683 35.3298 37.0796 36.6252 38.9438 36.6252Z" fill="white"/>
<path d="M45.2124 31.5923C44.2198 29.4564 41.79 27.9443 38.9438 27.9443C36.0976 27.9443 33.6679 29.4563 32.6752 31.5923H32.1936V33.7302C32.1936 35.328 32.9488 36.7746 34.1704 37.8216C35.3918 38.8685 37.0796 39.516 38.9437 39.516C42.6719 39.516 45.6938 36.9258 45.6938 33.7302V31.5923H45.2124Z" fill="#0F303F"/>
<path d="M36.6652 35.6838H34.1711V37.8217C35.4892 38.9515 37.2168 39.5161 38.9443 39.5161V33.7303L36.6652 35.6838Z" fill="#D7ECED"/>
<path d="M45.6938 33.7302V31.5923H45.2122C44.8705 30.8579 44.3567 30.1997 43.717 29.6489V33.7301H38.9438L43.717 37.8214C45.0351 36.6918 45.6945 35.211 45.6938 33.7302Z" fill="#D7ECED"/>
<path d="M43.717 35.6832H41.2229L38.9436 33.7296V39.5154C40.8078 39.5154 42.4955 38.8679 43.7169 37.821V35.6832H43.717Z" fill="#0F303F"/>
<path d="M38.9438 37.3781C42.6717 37.3781 45.6938 34.7877 45.6938 31.5923C45.6938 28.3969 42.6717 25.8066 38.9438 25.8066C35.2158 25.8066 32.1937 28.3969 32.1937 31.5923C32.1937 34.7877 35.2158 37.3781 38.9438 37.3781Z" fill="#2D5872"/>
<path d="M38.9438 25.8066V31.5923L43.7171 27.501C42.399 26.3712 40.6714 25.8066 38.9438 25.8066Z" fill="white"/>
<path d="M34.1712 27.501L38.9445 31.5923V25.8066C37.0798 25.8066 35.3927 26.454 34.1712 27.501Z" fill="#2D5872"/>
<path d="M32.1937 31.5923H38.9438L34.1705 27.501C32.8531 28.6308 32.1937 30.1116 32.1937 31.5923Z" fill="white"/>
<path d="M34.1712 35.6838L38.9445 31.5925H32.1944C32.1937 33.1902 32.9498 34.6362 34.1712 35.6838Z" fill="#2D5872"/>
<path d="M38.9438 37.3783V31.5925L34.1705 35.6838C35.4893 36.8131 37.2162 37.3783 38.9438 37.3783Z" fill="white"/>
<path d="M43.7171 35.6838L38.9438 31.5925V37.3783C40.808 37.3783 42.4956 36.7308 43.7171 35.6838Z" fill="#2D5872"/>
<path d="M45.6945 31.5923H38.9445L43.7177 35.6837C45.0351 34.554 45.6945 33.0732 45.6945 31.5923Z" fill="white"/>
<path d="M43.717 27.501L38.9438 31.5923H45.6938C45.6938 29.9946 44.9386 28.5481 43.717 27.501Z" fill="#2D5872"/>
<path d="M38.9438 35.6837C41.58 35.6837 43.7171 33.8519 43.7171 31.5923C43.7171 29.3327 41.58 27.501 38.9438 27.501C36.3076 27.501 34.1705 29.3327 34.1705 31.5923C34.1705 33.8519 36.3076 35.6837 38.9438 35.6837Z" fill="#2D5872"/>
<path d="M38.9438 34.4856C40.808 34.4856 42.3192 33.1902 42.3192 31.5923C42.3192 29.9945 40.808 28.6991 38.9438 28.6991C37.0796 28.6991 35.5683 29.9945 35.5683 31.5923C35.5683 33.1902 37.0796 34.4856 38.9438 34.4856Z" fill="white"/>
<path d="M29.3257 41.4696C28.3332 39.3336 25.9034 37.8216 23.0572 37.8216C20.211 37.8216 17.7814 39.3335 16.7887 41.4696H16.307V43.6075C16.307 45.2053 17.0622 46.6519 18.2838 47.6988C19.5053 48.7458 21.193 49.3933 23.0571 49.3933C26.7852 49.3933 29.8071 46.8031 29.8071 43.6075V41.4696H29.3257Z" fill="#0F303F"/>
<path d="M20.7781 45.5604H18.2839V47.6982C19.602 48.828 21.3296 49.3927 23.0572 49.3927V43.6069L20.7781 45.5604Z" fill="#D7ECED"/>
<path d="M29.8074 43.6073V41.4695H29.3258C28.9841 40.7351 28.4703 40.0768 27.8306 39.526V43.6072H23.0573L27.8306 47.6986C29.148 46.569 29.8074 45.0882 29.8074 43.6073Z" fill="#D7ECED"/>
<path d="M27.8299 45.5604H25.3358L23.0565 43.6068V49.3925C24.9207 49.3925 26.6083 48.7451 27.8298 47.6981V45.5604H27.8299Z" fill="#0F303F"/>
<path d="M23.0592 47.2577C26.7872 47.2577 29.8093 44.6674 29.8093 41.472C29.8093 38.2766 26.7872 35.6862 23.0592 35.6862C19.3312 35.6862 16.3091 38.2766 16.3091 41.472C16.3091 44.6674 19.3312 47.2577 23.0592 47.2577Z" fill="#2D5872"/>
<path d="M23.0573 35.6838V41.4696L27.8306 37.3782C26.5118 36.2484 24.7849 35.6838 23.0573 35.6838Z" fill="white"/>
<path d="M18.2839 37.3782L23.0572 41.4696V35.6838C21.1932 35.6838 19.5055 36.3312 18.2839 37.3782Z" fill="#2D5872"/>
<path d="M16.3091 41.4696H23.0592L18.2859 37.3783C16.9677 38.5081 16.3091 39.9888 16.3091 41.4696Z" fill="white"/>
<path d="M18.2849 45.5604L23.0581 41.469H16.3081C16.3082 43.0674 17.0634 44.5135 18.2849 45.5604Z" fill="#2D5872"/>
<path d="M23.0573 47.2554V41.4696L18.2841 45.561C19.602 46.6902 21.3298 47.2554 23.0573 47.2554Z" fill="white"/>
<path d="M27.8299 45.5604L23.0567 41.469V47.2548C24.9214 47.2554 26.6083 46.6081 27.8299 45.5604Z" fill="#2D5872"/>
<path d="M29.8074 41.4696H23.0573L27.8306 45.561C29.148 44.4306 29.8074 42.9504 29.8074 41.4696Z" fill="white"/>
<path d="M27.8299 37.3783L23.0567 41.4696H29.8067C29.8074 39.8718 29.0514 38.4252 27.8299 37.3783Z" fill="#2D5872"/>
<path d="M23.0573 45.5633C25.6935 45.5633 27.8306 43.7316 27.8306 41.472C27.8306 39.2124 25.6935 37.3806 23.0573 37.3806C20.4211 37.3806 18.2841 39.2124 18.2841 41.472C18.2841 43.7316 20.4211 45.5633 23.0573 45.5633Z" fill="#2D5872"/>
<path d="M23.0573 44.3652C24.9216 44.3652 26.4328 43.0699 26.4328 41.472C26.4328 39.8741 24.9216 38.5787 23.0573 38.5787C21.1931 38.5787 19.6819 39.8741 19.6819 41.472C19.6819 43.0699 21.1931 44.3652 23.0573 44.3652Z" fill="white"/>
</svg>
