<svg width="50" height="50" viewBox="0 0 50 50" fill="none" xmlns="http://www.w3.org/2000/svg">
<g clip-path="url(#clip0)">
<path d="M40.9553 19.4556C38.3527 18.2468 35.922 18.2179 33.7115 18.7539C35.5123 16.6223 36.5492 13.825 36.3869 10.781C36.0781 4.98009 31.2518 0.23007 25.4474 0.0080965C18.9456 -0.240147 13.5964 4.95636 13.5964 11.4029C13.5964 14.2055 14.6114 16.7678 16.2885 18.7538C14.078 18.2178 11.6473 18.2467 9.04466 19.4555C5.03849 21.317 2.25078 25.2564 2.19375 29.6732C2.11221 36.0408 7.24817 41.2276 13.5964 41.2276C16.664 41.2276 19.4421 40.0109 21.4912 38.0408V41.4005C21.4912 43.0119 21.071 44.5952 20.271 45.9943L18.7324 48.6873C18.3982 49.2724 18.821 49.9996 19.4938 49.9996H30.5062C31.1799 49.9996 31.6018 49.2725 31.2676 48.6873L29.729 45.9943C28.9299 44.5952 28.5088 43.0119 28.5088 41.4005V38.0408C30.5588 40.011 33.3368 41.2276 36.4036 41.2276C42.7518 41.2276 47.8887 36.0408 47.8062 29.6732C47.7492 25.2564 44.9614 21.317 40.9553 19.4556Z" fill="black"/>
</g>
<defs>
<clipPath id="clip0">
<rect width="50" height="50" fill="white"/>
</clipPath>
</defs>
</svg>
