<svg width="39" height="78" viewBox="0 0 39 78" fill="none" xmlns="http://www.w3.org/2000/svg">
<g clip-path="url(#clip0)">
<path d="M54.7314 8.48664C55.4979 8.62179 55.9969 9.45995 55.8396 10.3521L49.4853 46.3892C49.3284 47.2792 48.5727 47.8962 47.8062 47.7611L1.45476 39.5881C0.688376 39.4529 0.189112 38.6146 0.346038 37.7246L6.70035 1.68753C6.85766 0.795369 7.61352 0.178486 8.3799 0.313619L54.7314 8.48664Z" fill="white" stroke="black" stroke-width="0.622432"/>
<path fill-rule="evenodd" clip-rule="evenodd" d="M14.4407 12.8073L6.87262 11.4729L5.3334 20.2022L12.9015 21.5367L14.4407 12.8073Z" fill="white"/>
<path fill-rule="evenodd" clip-rule="evenodd" d="M15.9791 4.08281L8.41098 2.74836L6.87262 11.4729L14.4407 12.8073L15.9791 4.08281Z" fill="#190C80"/>
<path fill-rule="evenodd" clip-rule="evenodd" d="M23.5472 5.41728L15.9791 4.08281L14.4407 12.8073L22.0088 14.1418L23.5472 5.41728Z" fill="white"/>
<path fill-rule="evenodd" clip-rule="evenodd" d="M22.0088 14.1418L14.4407 12.8073L12.9015 21.5367L20.4696 22.8711L22.0088 14.1418Z" fill="#190C80"/>
<path fill-rule="evenodd" clip-rule="evenodd" d="M26.499 32.9303L18.9311 31.5958L17.3928 40.3203L24.9606 41.6548L26.499 32.9303Z" fill="white"/>
<path fill-rule="evenodd" clip-rule="evenodd" d="M28.0374 24.2055L20.4695 22.8711L18.9311 31.5958L26.499 32.9303L28.0374 24.2055Z" fill="#190C80"/>
<path fill-rule="evenodd" clip-rule="evenodd" d="M29.5766 15.4762L22.0088 14.1418L20.4695 22.8711L28.0374 24.2055L29.5766 15.4762Z" fill="white"/>
<path fill-rule="evenodd" clip-rule="evenodd" d="M31.115 6.75169L23.5471 5.41727L22.0088 14.1418L29.5766 15.4762L31.115 6.75169Z" fill="#190C80"/>
<path fill-rule="evenodd" clip-rule="evenodd" d="M20.4696 22.8711L12.9015 21.5366L11.3631 30.2614L18.9312 31.5958L20.4696 22.8711Z" fill="white"/>
<path fill-rule="evenodd" clip-rule="evenodd" d="M18.9312 31.5958L11.3631 30.2614L9.82471 38.9859L17.3928 40.3203L18.9312 31.5958Z" fill="#190C80"/>
<path fill-rule="evenodd" clip-rule="evenodd" d="M11.3631 30.2614L3.795 28.9269L2.25664 37.6514L9.82472 38.9859L11.3631 30.2614Z" fill="white"/>
<path fill-rule="evenodd" clip-rule="evenodd" d="M12.9015 21.5366L5.3334 20.2022L3.795 28.9269L11.3631 30.2614L12.9015 21.5366Z" fill="#190C80"/>
<path fill-rule="evenodd" clip-rule="evenodd" d="M41.6372 35.5995L34.0691 34.2651L32.5307 42.9896L40.0988 44.324L41.6372 35.5995Z" fill="white"/>
<path fill-rule="evenodd" clip-rule="evenodd" d="M43.1756 26.8748L35.6075 25.5403L34.0691 34.2651L41.6372 35.5995L43.1756 26.8748Z" fill="#190C80"/>
<path fill-rule="evenodd" clip-rule="evenodd" d="M38.6851 8.0865L31.115 6.75169L29.5767 15.4762L37.1467 16.811L38.6851 8.0865Z" fill="white"/>
<path fill-rule="evenodd" clip-rule="evenodd" d="M37.1467 16.811L29.5766 15.4762L28.0374 24.2055L35.6075 25.5403L37.1467 16.811Z" fill="#190C80"/>
<path fill-rule="evenodd" clip-rule="evenodd" d="M35.6075 25.5403L28.0374 24.2055L26.499 32.9303L34.0691 34.2651L35.6075 25.5403Z" fill="white"/>
<path fill-rule="evenodd" clip-rule="evenodd" d="M34.0691 34.2651L26.499 32.9303L24.9607 41.6548L32.5307 42.9896L34.0691 34.2651Z" fill="#190C80"/>
<path fill-rule="evenodd" clip-rule="evenodd" d="M44.7148 18.1455L37.1467 16.811L35.6075 25.5403L43.1756 26.8748L44.7148 18.1455Z" fill="white"/>
<path fill-rule="evenodd" clip-rule="evenodd" d="M46.2532 9.42095L38.6851 8.0865L37.1467 16.811L44.7148 18.1454L46.2532 9.42095Z" fill="#190C80"/>
<path fill-rule="evenodd" clip-rule="evenodd" d="M6.68003 12.5651L7.81576 11.6392L13.094 20.4447L11.9542 21.3696L6.68003 12.5651Z" fill="#190C80"/>
<path fill-rule="evenodd" clip-rule="evenodd" d="M8.21843 3.84036L9.35412 2.91466L14.6333 11.7151L13.4934 12.6403L8.21843 3.84036Z" fill="white"/>
<path fill-rule="evenodd" clip-rule="evenodd" d="M14.6333 11.7151L15.388 12.9743L23.3546 6.50928L22.5997 5.25021L14.6333 11.7151Z" fill="#190C80"/>
<path fill-rule="evenodd" clip-rule="evenodd" d="M13.094 20.4447L13.8488 21.7037L21.8162 15.234L21.0613 13.9747L13.094 20.4447Z" fill="white"/>
<path fill-rule="evenodd" clip-rule="evenodd" d="M18.7386 32.6877L19.8762 31.7625L25.1528 40.5651L24.0176 41.4885L18.7386 32.6877Z" fill="#190C80"/>
<path fill-rule="evenodd" clip-rule="evenodd" d="M20.2778 23.9584L21.4146 23.0377L26.6916 31.8381L25.556 32.764L20.2778 23.9584Z" fill="white"/>
<path fill-rule="evenodd" clip-rule="evenodd" d="M21.8162 15.234L22.9538 14.3084L28.23 23.1135L27.0944 24.0392L21.8162 15.234Z" fill="#190C80"/>
<path fill-rule="evenodd" clip-rule="evenodd" d="M23.3546 6.50927L24.4922 5.5839L29.7692 14.384L28.6336 15.3099L23.3546 6.50927Z" fill="white"/>
<path fill-rule="evenodd" clip-rule="evenodd" d="M11.5556 29.1693L12.3104 30.4284L20.2779 23.9584L19.5221 22.704L11.5556 29.1693Z" fill="#190C80"/>
<path fill-rule="evenodd" clip-rule="evenodd" d="M10.0169 37.8962L10.772 39.1529L18.7386 32.6877L17.9837 31.4288L10.0169 37.8962Z" fill="white"/>
<path fill-rule="evenodd" clip-rule="evenodd" d="M3.60247 30.0188L4.73814 29.0932L10.0169 37.8962L8.87742 38.8189L3.60247 30.0188Z" fill="#190C80"/>
<path fill-rule="evenodd" clip-rule="evenodd" d="M5.14169 21.2895L6.27654 20.3685L11.5556 29.1693L10.4158 30.0943L5.14169 21.2895Z" fill="white"/>
<path fill-rule="evenodd" clip-rule="evenodd" d="M41.4447 36.6914L40.6898 35.4325L32.7229 41.8999L33.4781 43.1566L41.4447 36.6914Z" fill="#190C80"/>
<path fill-rule="evenodd" clip-rule="evenodd" d="M42.9839 27.9621L42.2282 26.7077L34.2617 33.1729L35.0165 34.4321L42.9839 27.9621Z" fill="white"/>
<path fill-rule="evenodd" clip-rule="evenodd" d="M37.3393 15.7188L36.2015 16.6443L30.9225 7.84369L32.0624 6.91874L37.3393 15.7188Z" fill="#190C80"/>
<path fill-rule="evenodd" clip-rule="evenodd" d="M35.8 24.4483L34.6623 25.3737L29.3841 16.5684L30.524 15.6432L35.8 24.4483Z" fill="white"/>
<path fill-rule="evenodd" clip-rule="evenodd" d="M34.2617 33.1729L33.1239 34.0984L27.8457 25.2928L28.9848 24.3726L34.2617 33.1729Z" fill="#190C80"/>
<path fill-rule="evenodd" clip-rule="evenodd" d="M32.7229 41.8999L31.5855 42.8229L26.3065 34.0221L27.4464 33.0973L32.7229 41.8999Z" fill="white"/>
<path fill-rule="evenodd" clip-rule="evenodd" d="M44.5222 19.2377L43.7674 17.9784L35.8 24.4483L36.5549 25.7074L44.5222 19.2377Z" fill="#190C80"/>
<path fill-rule="evenodd" clip-rule="evenodd" d="M46.0606 10.513L45.3058 9.2539L37.3393 15.7188L38.0941 16.978L46.0606 10.513Z" fill="white"/>
<path fill-rule="evenodd" clip-rule="evenodd" d="M5.52595 19.1102L6.27654 20.3685L14.2481 13.8996L13.4934 12.6403L5.52595 19.1102Z" fill="#190C80"/>
<path fill-rule="evenodd" clip-rule="evenodd" d="M6.10279 15.8388L9.11843 20.8696L13.6709 17.1733L10.6577 12.1403L6.10279 15.8388Z" fill="#190C80"/>
<path fill-rule="evenodd" clip-rule="evenodd" d="M7.06521 10.3806L7.81576 11.6392L15.7865 5.17481L15.0318 3.91578L7.06521 10.3806Z" fill="white"/>
<path fill-rule="evenodd" clip-rule="evenodd" d="M7.64119 7.11406L10.6576 12.1403L15.2093 8.44851L12.196 3.41576L7.64119 7.11406Z" fill="white"/>
<path fill-rule="evenodd" clip-rule="evenodd" d="M15.7865 5.17482L16.9264 4.24985L22.2014 13.0495L21.0613 13.9747L15.7865 5.17482Z" fill="#190C80"/>
<path fill-rule="evenodd" clip-rule="evenodd" d="M15.2093 8.44851L19.7641 4.75022L22.7774 9.78298L18.2257 13.4747L15.2093 8.44851Z" fill="#190C80"/>
<path fill-rule="evenodd" clip-rule="evenodd" d="M14.2481 13.8995L15.388 12.9744L20.6621 21.7791L19.5221 22.704L14.2481 13.8995Z" fill="white"/>
<path fill-rule="evenodd" clip-rule="evenodd" d="M13.6709 17.1733L18.2257 13.4747L21.239 18.5077L16.6865 22.2041L13.6709 17.1733Z" fill="white"/>
<path fill-rule="evenodd" clip-rule="evenodd" d="M17.5849 39.2306L18.3378 40.487L26.3065 34.0221L25.556 32.764L17.5849 39.2306Z" fill="#190C80"/>
<path fill-rule="evenodd" clip-rule="evenodd" d="M18.1626 35.9544L21.1776 40.9877L25.7305 37.2888L22.716 32.2632L18.1626 35.9544Z" fill="#190C80"/>
<path fill-rule="evenodd" clip-rule="evenodd" d="M19.1237 30.5037L19.8762 31.7625L27.8457 25.2928L27.0944 24.0392L19.1237 30.5037Z" fill="white"/>
<path fill-rule="evenodd" clip-rule="evenodd" d="M19.701 27.2298L22.716 32.2632L27.2689 28.5642L24.2544 23.5385L19.701 27.2298Z" fill="white"/>
<path fill-rule="evenodd" clip-rule="evenodd" d="M20.6621 21.7791L21.4146 23.0377L29.384 16.5684L28.6336 15.3099L20.6621 21.7791Z" fill="#190C80"/>
<path fill-rule="evenodd" clip-rule="evenodd" d="M21.2389 18.5077L24.2544 23.5385L28.8068 19.8421L25.7936 14.8091L21.2389 18.5077Z" fill="#190C80"/>
<path fill-rule="evenodd" clip-rule="evenodd" d="M22.2014 13.0495L22.9538 14.3084L30.9225 7.84369L30.172 6.5854L22.2014 13.0495Z" fill="white"/>
<path fill-rule="evenodd" clip-rule="evenodd" d="M22.7773 9.78297L25.7936 14.8091L30.3452 11.1174L27.332 6.08463L22.7773 9.78297Z" fill="white"/>
<path fill-rule="evenodd" clip-rule="evenodd" d="M12.7098 22.6239L13.8488 21.7037L19.1237 30.5037L17.9837 31.4288L12.7098 22.6239Z" fill="#190C80"/>
<path fill-rule="evenodd" clip-rule="evenodd" d="M12.1329 25.8953L16.6865 22.204L19.701 27.2298L15.1481 30.9288L12.1329 25.8953Z" fill="#190C80"/>
<path fill-rule="evenodd" clip-rule="evenodd" d="M11.1705 31.3533L12.3104 30.4284L17.585 39.2306L16.4453 40.1533L11.1705 31.3533Z" fill="white"/>
<path fill-rule="evenodd" clip-rule="evenodd" d="M10.5945 34.6199L15.1481 30.9288L18.1626 35.9544L13.6097 39.6533L10.5945 34.6199Z" fill="white"/>
<path fill-rule="evenodd" clip-rule="evenodd" d="M2.44878 36.5617L3.19977 37.8177L11.1706 31.3533L10.4158 30.0943L2.44878 36.5617Z" fill="#190C80"/>
<path fill-rule="evenodd" clip-rule="evenodd" d="M3.02647 33.2855L6.04167 38.3188L10.5945 34.6199L7.58003 29.5943L3.02647 33.2855Z" fill="#190C80"/>
<path fill-rule="evenodd" clip-rule="evenodd" d="M3.98757 27.8348L4.73813 29.0932L12.7098 22.6239L11.9542 21.3696L3.98757 27.8348Z" fill="white"/>
<path fill-rule="evenodd" clip-rule="evenodd" d="M4.56485 24.5609L7.58003 29.5943L12.1329 25.8953L9.11843 20.8696L4.56485 24.5609Z" fill="white"/>
<path fill-rule="evenodd" clip-rule="evenodd" d="M40.8686 39.9581L36.3158 43.657L33.3006 38.6236L37.8541 34.9325L40.8686 39.9581Z" fill="#190C80"/>
<path fill-rule="evenodd" clip-rule="evenodd" d="M41.8297 34.5074L40.6898 35.4325L35.4158 26.6276L36.5549 25.7074L41.8297 34.5074Z" fill="white"/>
<path fill-rule="evenodd" clip-rule="evenodd" d="M42.407 31.2335L37.8541 34.9325L34.8389 29.899L39.3925 26.2077L42.407 31.2335Z" fill="white"/>
<path fill-rule="evenodd" clip-rule="evenodd" d="M38.4925 9.1785L37.7399 7.91983L29.7692 14.384L30.5241 15.6432L38.4925 9.1785Z" fill="#190C80"/>
<path fill-rule="evenodd" clip-rule="evenodd" d="M37.9153 12.4522L34.9001 7.41909L30.3452 11.1174L33.3617 16.1436L37.9153 12.4522Z" fill="#190C80"/>
<path fill-rule="evenodd" clip-rule="evenodd" d="M36.9541 17.9032L36.2015 16.6443L28.23 23.1135L28.9848 24.3726L36.9541 17.9032Z" fill="white"/>
<path fill-rule="evenodd" clip-rule="evenodd" d="M36.3769 21.1769L33.3617 16.1436L28.8068 19.8421L31.8225 24.8729L36.3769 21.1769Z" fill="white"/>
<path fill-rule="evenodd" clip-rule="evenodd" d="M35.4158 26.6276L34.6623 25.3737L26.6916 31.8381L27.4464 33.0973L35.4158 26.6276Z" fill="#190C80"/>
<path fill-rule="evenodd" clip-rule="evenodd" d="M34.8389 29.899L31.8225 24.8729L27.2689 28.5642L30.2841 33.5977L34.8389 29.899Z" fill="#190C80"/>
<path fill-rule="evenodd" clip-rule="evenodd" d="M33.8766 35.3569L33.1239 34.0984L25.1528 40.5651L25.9081 41.8218L33.8766 35.3569Z" fill="white"/>
<path fill-rule="evenodd" clip-rule="evenodd" d="M33.3006 38.6236L30.2841 33.5977L25.7305 37.2888L28.7457 42.3222L33.3006 38.6236Z" fill="white"/>
<path fill-rule="evenodd" clip-rule="evenodd" d="M43.3681 25.7828L42.2282 26.7077L36.9541 17.9032L38.0941 16.9781L43.3681 25.7828Z" fill="#190C80"/>
<path fill-rule="evenodd" clip-rule="evenodd" d="M43.945 22.5114L39.3925 26.2077L36.3769 21.1769L40.9317 17.4784L43.945 22.5114Z" fill="#190C80"/>
<path fill-rule="evenodd" clip-rule="evenodd" d="M44.9074 17.0532L43.7674 17.9784L38.4925 9.1785L39.6325 8.25355L44.9074 17.0532Z" fill="white"/>
<path fill-rule="evenodd" clip-rule="evenodd" d="M45.4834 13.7867L40.9317 17.4784L37.9153 12.4522L42.4701 8.7539L45.4834 13.7867Z" fill="white"/>
<path fill-rule="evenodd" clip-rule="evenodd" d="M12.1614 14.6549L8.26104 13.9672L7.49121 18.3331L11.3916 19.0209L12.1614 14.6549Z" fill="white"/>
<path fill-rule="evenodd" clip-rule="evenodd" d="M13.6998 5.93042L9.79941 5.24268L9.03043 9.60379L12.9308 10.2915L13.6998 5.93042Z" fill="#190C80"/>
<path fill-rule="evenodd" clip-rule="evenodd" d="M8.46691 16.2556L9.59941 18.1418L11.3026 16.7556L10.1767 14.8681L8.46691 16.2556Z" fill="#190C80"/>
<path fill-rule="evenodd" clip-rule="evenodd" d="M10.0053 7.53091L11.1382 9.41474L12.841 8.03091L11.715 6.14356L10.0053 7.53091Z" fill="white"/>
<path fill-rule="evenodd" clip-rule="evenodd" d="M21.2699 7.26523L17.3695 6.57749L16.6005 10.9386L20.5009 11.6263L21.2699 7.26523Z" fill="white"/>
<path fill-rule="evenodd" clip-rule="evenodd" d="M19.7315 15.9897L15.8311 15.302L15.0613 19.6679L18.9617 20.3557L19.7315 15.9897Z" fill="#190C80"/>
<path fill-rule="evenodd" clip-rule="evenodd" d="M17.5754 8.86572L19.2831 7.47802L20.411 9.36572L18.7063 10.7492L17.5754 8.86572" fill="#190C80"/>
<path fill-rule="evenodd" clip-rule="evenodd" d="M16.037 17.5905L17.7447 16.2025L18.8726 18.0905L17.1675 19.4762L16.037 17.5905" fill="white"/>
<path fill-rule="evenodd" clip-rule="evenodd" d="M24.2239 34.7785L20.3215 34.0904L19.5525 38.4516L23.4549 39.1397L24.2239 34.7785Z" fill="white"/>
<path fill-rule="evenodd" clip-rule="evenodd" d="M25.7628 26.0515L21.8603 25.3634L21.0909 29.7269L24.9934 30.415L25.7628 26.0515Z" fill="#190C80"/>
<path fill-rule="evenodd" clip-rule="evenodd" d="M20.5266 36.3712L21.6586 38.26L23.3684 36.8723L22.235 34.9909L20.5266 36.3712Z" fill="#190C80"/>
<path fill-rule="evenodd" clip-rule="evenodd" d="M22.0649 27.6466L23.197 29.5353L24.9068 28.1477L23.7738 26.2638L22.0649 27.6466Z" fill="white"/>
<path fill-rule="evenodd" clip-rule="evenodd" d="M27.3016 17.3246L23.3991 16.6364L22.6293 21.0024L26.5317 21.6905L27.3016 17.3246Z" fill="white"/>
<path fill-rule="evenodd" clip-rule="evenodd" d="M28.8399 8.60004L24.9375 7.91193L24.1685 12.273L28.0709 12.9611L28.8399 8.60004Z" fill="#190C80"/>
<path fill-rule="evenodd" clip-rule="evenodd" d="M23.6029 18.9245L24.7354 20.8107L26.4447 19.4256L25.3126 17.5369L23.6029 18.9245Z" fill="#190C80"/>
<path fill-rule="evenodd" clip-rule="evenodd" d="M25.1413 10.1998L26.2742 12.0836L27.9832 10.7009L26.851 8.81244L25.1413 10.1998Z" fill="white"/>
<path fill-rule="evenodd" clip-rule="evenodd" d="M18.1927 24.7167L14.2923 24.0289L13.5229 28.3925L17.4233 29.0802L18.1927 24.7167Z" fill="white"/>
<path fill-rule="evenodd" clip-rule="evenodd" d="M16.6539 33.4437L12.7535 32.756L11.9845 37.1172L15.8849 37.8049L16.6539 33.4437Z" fill="#190C80"/>
<path fill-rule="evenodd" clip-rule="evenodd" d="M14.499 26.3125L16.2059 24.9294L17.3347 26.8125L15.6291 28.2008L14.499 26.3125" fill="#190C80"/>
<path fill-rule="evenodd" clip-rule="evenodd" d="M12.9606 35.0372L14.6671 33.6565L15.7963 35.5372L14.0907 36.9256L12.9606 35.0372" fill="white"/>
<path fill-rule="evenodd" clip-rule="evenodd" d="M9.08379 32.1089L5.18343 31.4212L4.41443 35.7824L8.31479 36.4701L9.08379 32.1089Z" fill="white"/>
<path fill-rule="evenodd" clip-rule="evenodd" d="M10.6226 23.3819L6.72224 22.6941L5.95284 27.0576L9.85319 27.7454L10.6226 23.3819Z" fill="#190C80"/>
<path fill-rule="evenodd" clip-rule="evenodd" d="M5.39058 33.7024L6.52261 35.5911L8.22623 34.2024L7.09904 32.322L5.39058 33.7024Z" fill="#190C80"/>
<path fill-rule="evenodd" clip-rule="evenodd" d="M6.92897 24.9777L8.06102 26.8664L9.76462 25.4777L8.63785 23.595L6.92897 24.9777Z" fill="white"/>
<path fill-rule="evenodd" clip-rule="evenodd" d="M41.0182 28.7414L37.1158 28.0533L36.3464 32.4169L40.2488 33.1049L41.0182 28.7414Z" fill="#190C80"/>
<path fill-rule="evenodd" clip-rule="evenodd" d="M40.0428 30.8166L38.3351 32.2045L37.2032 30.3159L38.912 28.9331L40.0428 30.8166Z" fill="white"/>
<path fill-rule="evenodd" clip-rule="evenodd" d="M36.5253 9.95517L32.621 9.26674L31.852 13.6279L35.7563 14.3163L36.5253 9.95517Z" fill="white"/>
<path fill-rule="evenodd" clip-rule="evenodd" d="M34.9869 18.6797L31.0827 17.9913L30.3128 22.3572L34.2171 23.0456L34.9869 18.6797Z" fill="#190C80"/>
<path fill-rule="evenodd" clip-rule="evenodd" d="M35.5511 12.0353L34.4191 10.1469L32.7095 11.5343L33.8423 13.4181L35.5511 12.0353Z" fill="#190C80"/>
<path fill-rule="evenodd" clip-rule="evenodd" d="M34.0127 20.76L32.8807 18.8714L31.1711 20.259L32.3035 22.1451L34.0127 20.76Z" fill="white"/>
<path fill-rule="evenodd" clip-rule="evenodd" d="M33.4482 27.4066L29.5439 26.7182L28.7745 31.0817L32.6787 31.7701L33.4482 27.4066Z" fill="white"/>
<path fill-rule="evenodd" clip-rule="evenodd" d="M31.9093 36.1337L28.0051 35.4452L27.2361 39.8064L31.1403 40.4949L31.9093 36.1337Z" fill="#190C80"/>
<path fill-rule="evenodd" clip-rule="evenodd" d="M32.4747 29.4821L31.3419 27.5983L29.6331 28.9811L30.7651 30.8697L32.4747 29.4821Z" fill="#190C80"/>
<path fill-rule="evenodd" clip-rule="evenodd" d="M30.9363 38.2068L29.8031 36.3254L28.0947 37.7057L29.2267 39.5945L30.9363 38.2068Z" fill="white"/>
<path fill-rule="evenodd" clip-rule="evenodd" d="M42.557 20.0145L38.6546 19.3264L37.8848 23.6923L41.7872 24.3804L42.557 20.0145Z" fill="white"/>
<path fill-rule="evenodd" clip-rule="evenodd" d="M41.5807 22.0945L39.8735 23.4799L38.7411 21.5938L40.4508 20.2062L41.5807 22.0945Z" fill="#190C80"/>
<path fill-rule="evenodd" clip-rule="evenodd" d="M40.291 43.2343L39.1514 44.157L33.8766 35.3569L35.0165 34.4321L40.291 43.2343Z" fill="#190C80"/>
<path fill-rule="evenodd" clip-rule="evenodd" d="M39.4794 37.4685L35.577 36.7804L34.808 41.1416L38.7104 41.8297L39.4794 37.4685Z" fill="white"/>
<path fill-rule="evenodd" clip-rule="evenodd" d="M38.5044 39.5412L36.7967 40.9293L35.6648 39.0405L37.3732 37.6602L38.5044 39.5412Z" fill="#190C80"/>
<path fill-rule="evenodd" clip-rule="evenodd" d="M54.7482 9.60892L48.1904 46.8L1.11406 38.4991L7.67184 1.30809L54.7482 9.60892Z" stroke="#1E0C7D" stroke-width="3.73459" stroke-miterlimit="10" stroke-linejoin="round"/>
</g>
<g clip-path="url(#clip1)">
<path d="M54.4191 34.162C55.1955 34.1077 55.8825 34.8003 55.9457 35.704L58.4983 72.2079C58.5614 73.1094 57.9774 73.8909 57.201 73.9452L10.2491 77.2284C9.47284 77.2827 8.7856 76.59 8.72256 75.6885L6.16996 39.1846C6.10677 38.2809 6.69093 37.4995 7.46724 37.4452L54.4191 34.162Z" fill="white" stroke="black" stroke-width="0.622432"/>
<path fill-rule="evenodd" clip-rule="evenodd" d="M16.3705 48.1016L8.7044 48.6376L9.32272 57.48L16.9888 56.944L16.3705 48.1016Z" fill="white"/>
<path fill-rule="evenodd" clip-rule="evenodd" d="M15.7525 39.2641L8.08641 39.8001L8.70439 48.6376L16.3705 48.1016L15.7525 39.2641Z" fill="#190C80"/>
<path fill-rule="evenodd" clip-rule="evenodd" d="M23.4187 38.728L15.7525 39.2641L16.3705 48.1016L24.0366 47.5655L23.4187 38.728Z" fill="white"/>
<path fill-rule="evenodd" clip-rule="evenodd" d="M24.0366 47.5655L16.3705 48.1016L16.9888 56.944L24.655 56.4079L24.0366 47.5655Z" fill="#190C80"/>
<path fill-rule="evenodd" clip-rule="evenodd" d="M32.9388 64.7096L25.2729 65.2456L25.8909 74.0832L33.5568 73.5471L32.9388 64.7096Z" fill="white"/>
<path fill-rule="evenodd" clip-rule="evenodd" d="M32.3208 55.8718L24.6549 56.4079L25.2729 65.2456L32.9388 64.7096L32.3208 55.8718Z" fill="#190C80"/>
<path fill-rule="evenodd" clip-rule="evenodd" d="M31.7025 47.0294L24.0366 47.5655L24.6549 56.4079L32.3208 55.8719L31.7025 47.0294Z" fill="white"/>
<path fill-rule="evenodd" clip-rule="evenodd" d="M31.0845 38.1919L23.4186 38.728L24.0366 47.5655L31.7025 47.0294L31.0845 38.1919Z" fill="#190C80"/>
<path fill-rule="evenodd" clip-rule="evenodd" d="M24.655 56.4079L16.9888 56.944L17.6068 65.7817L25.273 65.2456L24.655 56.4079Z" fill="white"/>
<path fill-rule="evenodd" clip-rule="evenodd" d="M25.2729 65.2456L17.6068 65.7817L18.2248 74.6192L25.8909 74.0832L25.2729 65.2456Z" fill="#190C80"/>
<path fill-rule="evenodd" clip-rule="evenodd" d="M17.6068 65.7817L9.94071 66.3178L10.5587 75.1553L18.2248 74.6192L17.6068 65.7817Z" fill="white"/>
<path fill-rule="evenodd" clip-rule="evenodd" d="M16.9888 56.944L9.32272 57.48L9.94072 66.3178L17.6068 65.7817L16.9888 56.944Z" fill="#190C80"/>
<path fill-rule="evenodd" clip-rule="evenodd" d="M38.7527 37.6557L31.0845 38.1919L31.7025 47.0294L39.3706 46.4932L38.7527 37.6557Z" fill="white"/>
<path fill-rule="evenodd" clip-rule="evenodd" d="M39.3706 46.4932L31.7025 47.0294L32.3208 55.8718L39.9889 55.3356L39.3706 46.4932Z" fill="#190C80"/>
<path fill-rule="evenodd" clip-rule="evenodd" d="M39.9889 55.3356L32.3208 55.8718L32.9388 64.7096L40.6069 64.1734L39.9889 55.3356Z" fill="white"/>
<path fill-rule="evenodd" clip-rule="evenodd" d="M40.6069 64.1734L32.9388 64.7096L33.5568 73.5471L41.2249 73.0109L40.6069 64.1734Z" fill="#190C80"/>
<path fill-rule="evenodd" clip-rule="evenodd" d="M46.4188 37.1197L38.7527 37.6557L39.3706 46.4932L47.0367 45.9572L46.4188 37.1197Z" fill="#190C80"/>
<path fill-rule="evenodd" clip-rule="evenodd" d="M8.78177 49.744L9.65976 48.5708L16.9115 55.8378L16.0293 57.0111L8.78177 49.744Z" fill="#190C80"/>
<path fill-rule="evenodd" clip-rule="evenodd" d="M8.16376 40.9063L9.04177 39.7333L16.2931 46.9952L15.4109 48.1687L8.16376 40.9063Z" fill="white"/>
<path fill-rule="evenodd" clip-rule="evenodd" d="M16.2931 46.9952L17.3301 48.0345L23.496 39.8341L22.4589 38.7951L16.2931 46.9952Z" fill="#190C80"/>
<path fill-rule="evenodd" clip-rule="evenodd" d="M16.9115 55.8378L17.9484 56.8769L24.114 48.6719L23.0769 47.6326L16.9115 55.8378Z" fill="white"/>
<path fill-rule="evenodd" clip-rule="evenodd" d="M25.3503 66.3517L26.2302 65.1787L33.4796 72.4433L32.6015 73.6139L25.3503 66.3517Z" fill="#190C80"/>
<path fill-rule="evenodd" clip-rule="evenodd" d="M24.7319 57.5093L25.6122 56.341L32.8615 63.6033L31.9836 64.7764L24.7319 57.5093Z" fill="white"/>
<path fill-rule="evenodd" clip-rule="evenodd" d="M24.114 48.6719L24.9939 47.4986L32.2435 54.7657L31.3656 55.9387L24.114 48.6719Z" fill="#190C80"/>
<path fill-rule="evenodd" clip-rule="evenodd" d="M23.496 39.8341L24.3759 38.6611L31.6251 45.9231L30.7472 47.0962L23.496 39.8341Z" fill="white"/>
<path fill-rule="evenodd" clip-rule="evenodd" d="M17.5295 64.6754L18.5664 65.7146L24.732 57.5093L23.6952 56.475L17.5295 64.6754Z" fill="#190C80"/>
<path fill-rule="evenodd" clip-rule="evenodd" d="M18.1476 73.5154L19.1844 74.5521L25.3503 66.3517L24.3132 65.3128L18.1476 73.5154Z" fill="white"/>
<path fill-rule="evenodd" clip-rule="evenodd" d="M10.018 67.4238L10.8961 66.251L18.1476 73.5154L17.2652 74.6863L10.018 67.4238Z" fill="#190C80"/>
<path fill-rule="evenodd" clip-rule="evenodd" d="M9.39974 58.5814L10.2781 57.4132L17.5295 64.6754L16.6473 65.8488L9.39974 58.5814Z" fill="white"/>
<path fill-rule="evenodd" clip-rule="evenodd" d="M39.2933 45.3869L38.4132 46.5602L31.1619 39.2981L32.0442 38.1248L39.2933 45.3869Z" fill="#190C80"/>
<path fill-rule="evenodd" clip-rule="evenodd" d="M39.9116 54.2295L39.0315 55.4026L31.7799 48.1358L32.6622 46.9623L39.9116 54.2295Z" fill="white"/>
<path fill-rule="evenodd" clip-rule="evenodd" d="M40.5296 63.0671L39.6495 64.2403L32.3978 56.9732L33.2805 55.8047L40.5296 63.0671Z" fill="#190C80"/>
<path fill-rule="evenodd" clip-rule="evenodd" d="M41.1477 71.9071L40.2675 73.0778L33.0162 65.8156L33.8985 64.6425L41.1477 71.9071Z" fill="white"/>
<path fill-rule="evenodd" clip-rule="evenodd" d="M46.4961 38.2258L45.4591 37.1868L39.2933 45.3868L40.3303 46.4261L46.4961 38.2258Z" fill="white"/>
<path fill-rule="evenodd" clip-rule="evenodd" d="M9.24537 56.3739L10.2781 57.4132L16.4479 49.2079L15.4109 48.1687L9.24537 56.3739Z" fill="#190C80"/>
<path fill-rule="evenodd" clip-rule="evenodd" d="M9.01365 53.0601L13.1568 57.2119L16.6798 52.5241L12.5385 48.3695L9.01365 53.0601Z" fill="#190C80"/>
<path fill-rule="evenodd" clip-rule="evenodd" d="M8.62703 47.5312L9.65974 48.5708L15.8299 40.3702L14.793 39.3311L8.62703 47.5312Z" fill="white"/>
<path fill-rule="evenodd" clip-rule="evenodd" d="M8.39565 44.2224L12.5384 48.3695L16.0618 43.6863L11.9205 39.532L8.39565 44.2224Z" fill="white"/>
<path fill-rule="evenodd" clip-rule="evenodd" d="M15.8299 40.3702L16.7121 39.197L23.9593 46.4591L23.0769 47.6326L15.8299 40.3702Z" fill="#190C80"/>
<path fill-rule="evenodd" clip-rule="evenodd" d="M16.0618 43.6863L19.5866 38.9959L23.7279 43.1502L20.2046 47.8335L16.0618 43.6863Z" fill="#190C80"/>
<path fill-rule="evenodd" clip-rule="evenodd" d="M16.4479 49.2079L17.3301 48.0345L24.5776 55.3018L23.6952 56.475L16.4479 49.2079Z" fill="white"/>
<path fill-rule="evenodd" clip-rule="evenodd" d="M16.6798 52.524L20.2046 47.8335L24.3459 51.988L20.8229 56.6759L16.6798 52.524Z" fill="white"/>
<path fill-rule="evenodd" clip-rule="evenodd" d="M25.8137 72.9793L26.8482 74.0162L33.0162 65.8156L31.9836 64.7764L25.8137 72.9793Z" fill="#190C80"/>
<path fill-rule="evenodd" clip-rule="evenodd" d="M25.5816 69.6607L29.7247 73.8151L33.2475 69.1246L29.1068 64.9776L25.5816 69.6607Z" fill="#190C80"/>
<path fill-rule="evenodd" clip-rule="evenodd" d="M25.1956 64.1394L26.2302 65.1787L32.3978 56.9732L31.3656 55.9386L25.1956 64.1394Z" fill="white"/>
<path fill-rule="evenodd" clip-rule="evenodd" d="M24.9637 60.823L29.1068 64.9776L32.6296 60.287L28.4888 56.1398L24.9637 60.823Z" fill="white"/>
<path fill-rule="evenodd" clip-rule="evenodd" d="M24.5776 55.3018L25.6122 56.341L31.7799 48.1358L30.7472 47.0962L24.5776 55.3018Z" fill="#190C80"/>
<path fill-rule="evenodd" clip-rule="evenodd" d="M24.3459 51.988L28.4888 56.1398L32.0117 51.4519L27.8705 47.2974L24.3459 51.988Z" fill="#190C80"/>
<path fill-rule="evenodd" clip-rule="evenodd" d="M23.9592 46.4591L24.9939 47.4986L31.1619 39.2981L30.1293 38.2587L23.9592 46.4591Z" fill="white"/>
<path fill-rule="evenodd" clip-rule="evenodd" d="M23.7279 43.1502L27.8705 47.2974L31.3938 42.6142L27.2525 38.4599L23.7279 43.1502Z" fill="white"/>
<path fill-rule="evenodd" clip-rule="evenodd" d="M17.0658 58.0453L17.9484 56.8769L25.1956 64.1394L24.3132 65.3128L17.0658 58.0453Z" fill="#190C80"/>
<path fill-rule="evenodd" clip-rule="evenodd" d="M17.2976 61.3591L20.8229 56.6759L24.9637 60.823L21.4409 65.5136L17.2976 61.3591Z" fill="#190C80"/>
<path fill-rule="evenodd" clip-rule="evenodd" d="M17.6842 66.8877L18.5664 65.7146L25.8137 72.9793L24.9312 74.1503L17.6842 66.8877Z" fill="white"/>
<path fill-rule="evenodd" clip-rule="evenodd" d="M17.9155 70.1967L21.4409 65.5136L25.5817 69.6607L22.0589 74.3511L17.9155 70.1967Z" fill="white"/>
<path fill-rule="evenodd" clip-rule="evenodd" d="M10.4815 74.0515L11.514 75.0885L17.6842 66.8877L16.6472 65.8488L10.4815 74.0515Z" fill="#190C80"/>
<path fill-rule="evenodd" clip-rule="evenodd" d="M10.2494 70.7328L14.3927 74.8872L17.9155 70.1967L13.7748 66.0497L10.2494 70.7328Z" fill="#190C80"/>
<path fill-rule="evenodd" clip-rule="evenodd" d="M9.86336 65.2115L10.8961 66.251L17.0658 58.0453L16.0293 57.0111L9.86336 65.2115Z" fill="white"/>
<path fill-rule="evenodd" clip-rule="evenodd" d="M9.63146 61.8952L13.7748 66.0497L17.2976 61.3591L13.1568 57.2119L9.63146 61.8952Z" fill="white"/>
<path fill-rule="evenodd" clip-rule="evenodd" d="M38.83 38.7619L37.7952 37.7227L31.6251 45.9231L32.6622 46.9623L38.83 38.7619Z" fill="#190C80"/>
<path fill-rule="evenodd" clip-rule="evenodd" d="M39.0619 42.078L34.9186 37.9238L31.3938 42.6142L35.5366 46.7613L39.0619 42.078Z" fill="#190C80"/>
<path fill-rule="evenodd" clip-rule="evenodd" d="M39.448 47.5996L38.4132 46.5602L32.2435 54.7657L33.2805 55.8047L39.448 47.5996Z" fill="white"/>
<path fill-rule="evenodd" clip-rule="evenodd" d="M39.6799 50.9157L35.5366 46.7613L32.0118 51.4519L36.1549 55.6037L39.6799 50.9157Z" fill="white"/>
<path fill-rule="evenodd" clip-rule="evenodd" d="M40.066 56.437L39.0315 55.4026L32.8615 63.6033L33.8985 64.6425L40.066 56.437Z" fill="#190C80"/>
<path fill-rule="evenodd" clip-rule="evenodd" d="M40.2977 59.7508L36.1549 55.6037L32.6296 60.287L36.7729 64.4415L40.2977 59.7508Z" fill="#190C80"/>
<path fill-rule="evenodd" clip-rule="evenodd" d="M40.6843 65.2794L39.6495 64.2403L33.4796 72.4433L34.5165 73.48L40.6843 65.2794Z" fill="white"/>
<path fill-rule="evenodd" clip-rule="evenodd" d="M40.9157 68.5884L36.7729 64.4415L33.2476 69.1246L37.3909 73.279L40.9157 68.5884Z" fill="white"/>
<path fill-rule="evenodd" clip-rule="evenodd" d="M46.9594 44.8508L46.0771 46.0243L38.83 38.7619L39.7123 37.5886L46.9594 44.8508Z" fill="white"/>
<path fill-rule="evenodd" clip-rule="evenodd" d="M46.728 41.5419L43.2047 46.2251L39.0619 42.078L42.5867 37.3876L46.728 41.5419Z" fill="white"/>
<path fill-rule="evenodd" clip-rule="evenodd" d="M14.6059 50.4457L10.655 50.722L10.9643 55.1445L14.9151 54.8682L14.6059 50.4457Z" fill="white"/>
<path fill-rule="evenodd" clip-rule="evenodd" d="M13.9879 41.6082L10.037 41.8845L10.3459 46.3021L14.2968 46.0258L13.9879 41.6082Z" fill="#190C80"/>
<path fill-rule="evenodd" clip-rule="evenodd" d="M11.4084 52.8926L12.9635 54.4488L14.2808 52.6918L12.7317 51.1327L11.4084 52.8926Z" fill="#190C80"/>
<path fill-rule="evenodd" clip-rule="evenodd" d="M10.7904 44.0549L12.3454 45.6087L13.6628 43.8541L12.1137 42.2952L10.7904 44.0549Z" fill="white"/>
<path fill-rule="evenodd" clip-rule="evenodd" d="M21.6561 41.072L17.7052 41.3482L18.0141 45.7658L21.965 45.4896L21.6561 41.072Z" fill="white"/>
<path fill-rule="evenodd" clip-rule="evenodd" d="M22.274 49.9095L18.3232 50.1858L18.6324 54.6083L22.5833 54.332L22.274 49.9095Z" fill="#190C80"/>
<path fill-rule="evenodd" clip-rule="evenodd" d="M18.4585 43.5187L19.7798 41.7591L21.3309 43.3178L20.0115 45.0726L18.4585 43.5187" fill="#190C80"/>
<path fill-rule="evenodd" clip-rule="evenodd" d="M19.0765 52.3564L20.3978 50.5966L21.9489 52.1556L20.6296 53.9127L19.0765 52.3564" fill="white"/>
<path fill-rule="evenodd" clip-rule="evenodd" d="M31.1785 67.0533L27.2255 67.3298L27.5344 71.7475L31.4874 71.471L31.1785 67.0533Z" fill="white"/>
<path fill-rule="evenodd" clip-rule="evenodd" d="M30.5603 58.2133L26.6073 58.4897L26.9164 62.9097L30.8694 62.6333L30.5603 58.2133Z" fill="#190C80"/>
<path fill-rule="evenodd" clip-rule="evenodd" d="M27.9762 69.4932L29.5315 71.052L30.8549 69.2919L29.3 67.7406L27.9762 69.4932Z" fill="#190C80"/>
<path fill-rule="evenodd" clip-rule="evenodd" d="M27.3582 60.6556L28.9135 62.2143L30.2369 60.4543L28.6818 58.9005L27.3582 60.6556Z" fill="white"/>
<path fill-rule="evenodd" clip-rule="evenodd" d="M29.9422 49.3733L25.9891 49.6497L26.2984 54.0722L30.2514 53.7958L29.9422 49.3733Z" fill="white"/>
<path fill-rule="evenodd" clip-rule="evenodd" d="M29.3242 40.5358L25.3712 40.8122L25.6801 45.2298L29.6331 44.9534L29.3242 40.5358Z" fill="#190C80"/>
<path fill-rule="evenodd" clip-rule="evenodd" d="M26.7404 51.8205L28.2956 53.3767L29.6191 51.6192L28.0637 50.0605L26.7404 51.8205Z" fill="#190C80"/>
<path fill-rule="evenodd" clip-rule="evenodd" d="M26.1224 42.9828L27.6774 44.5366L29.0011 42.7815L27.4457 41.223L26.1224 42.9828Z" fill="white"/>
<path fill-rule="evenodd" clip-rule="evenodd" d="M22.8922 58.7495L18.9413 59.0257L19.2504 63.4458L23.2013 63.1695L22.8922 58.7495Z" fill="white"/>
<path fill-rule="evenodd" clip-rule="evenodd" d="M23.5104 67.5895L19.5595 67.8658L19.8684 72.2835L23.8193 72.0073L23.5104 67.5895Z" fill="#190C80"/>
<path fill-rule="evenodd" clip-rule="evenodd" d="M19.6943 61.1915L21.0159 59.4365L22.5667 60.9906L21.2476 62.7503L19.6943 61.1915" fill="#190C80"/>
<path fill-rule="evenodd" clip-rule="evenodd" d="M20.3123 70.0291L21.6341 68.2766L23.1847 69.8283L21.8656 71.5881L20.3123 70.0291" fill="white"/>
<path fill-rule="evenodd" clip-rule="evenodd" d="M15.8422 68.1258L11.8913 68.402L12.2002 72.8197L16.1511 72.5435L15.8422 68.1258Z" fill="white"/>
<path fill-rule="evenodd" clip-rule="evenodd" d="M15.224 59.2857L11.2732 59.562L11.5822 63.982L15.5331 63.7057L15.224 59.2857Z" fill="#190C80"/>
<path fill-rule="evenodd" clip-rule="evenodd" d="M12.6442 70.5653L14.1995 72.1242L15.5166 70.3645L13.968 68.8127L12.6442 70.5653Z" fill="#190C80"/>
<path fill-rule="evenodd" clip-rule="evenodd" d="M12.0262 61.7277L13.5815 63.2864L14.8986 61.5268L13.3498 59.9726L12.0262 61.7277Z" fill="white"/>
<path fill-rule="evenodd" clip-rule="evenodd" d="M37.1091 39.9914L33.1543 40.2679L33.4632 44.6855L37.418 44.409L37.1091 39.9914Z" fill="white"/>
<path fill-rule="evenodd" clip-rule="evenodd" d="M37.7271 48.8289L33.7722 49.1055L34.0815 53.528L38.0363 53.2514L37.7271 48.8289Z" fill="#190C80"/>
<path fill-rule="evenodd" clip-rule="evenodd" d="M36.667 42.2454L35.1118 40.687L33.7886 42.4467L35.3435 44.0005L36.667 42.2454Z" fill="#190C80"/>
<path fill-rule="evenodd" clip-rule="evenodd" d="M37.285 51.0832L35.7298 49.5245L34.4066 51.2845L35.9617 52.8406L37.285 51.0832Z" fill="white"/>
<path fill-rule="evenodd" clip-rule="evenodd" d="M38.3452 57.6689L34.3904 57.9454L34.6995 62.3655L38.6543 62.0889L38.3452 57.6689Z" fill="white"/>
<path fill-rule="evenodd" clip-rule="evenodd" d="M38.9634 66.509L35.0085 66.7855L35.3175 71.2032L39.2723 70.9267L38.9634 66.509Z" fill="#190C80"/>
<path fill-rule="evenodd" clip-rule="evenodd" d="M37.9028 59.9182L36.3479 58.3644L35.0244 60.1195L36.5797 61.6782L37.9028 59.9182Z" fill="#190C80"/>
<path fill-rule="evenodd" clip-rule="evenodd" d="M38.5208 68.7559L36.9661 67.2045L35.6424 68.9572L37.1977 70.516L38.5208 68.7559Z" fill="white"/>
<path fill-rule="evenodd" clip-rule="evenodd" d="M54.7069 35.2469L57.3413 72.9197L9.65514 76.2542L7.0208 38.5815L54.7069 35.2469Z" stroke="#1E0C7D" stroke-width="3.73459" stroke-miterlimit="10" stroke-linejoin="round"/>
</g>
<defs>
<clipPath id="clip0">
<rect width="40" height="50" fill="white" transform="translate(0 39.3923) rotate(-80)"/>
</clipPath>
<clipPath id="clip1">
<rect width="40" height="50" fill="white" transform="translate(8.79025 77.3904) rotate(-94)"/>
</clipPath>
</defs>
</svg>
