<svg width="21" height="24" viewBox="0 0 21 24" fill="none" xmlns="http://www.w3.org/2000/svg">
<g clip-path="url(#clip0)">
<path d="M2.30288 1.61058C2.33955 1.29703 2.56699 1.09286 2.80907 1.15722L12.5878 3.75663C12.8293 3.82082 12.9967 4.12996 12.9601 4.44351L10.7423 23.4049C10.7056 23.7184 10.4781 23.9226 10.2367 23.8584L0.457927 21.259C0.215839 21.1947 0.0484467 20.8855 0.0851153 20.572L2.30288 1.61058Z" fill="white" stroke="black" stroke-width="0.622432"/>
<path fill-rule="evenodd" clip-rule="evenodd" d="M3.47529 18.0926L3.11319 21.1886L5.4819 21.8182L5.84401 18.7223L3.47529 18.0926Z" fill="white"/>
<path fill-rule="evenodd" clip-rule="evenodd" d="M1.10789 17.4633L0.745781 20.5593L3.11319 21.1886L3.4753 18.0926L1.10789 17.4633Z" fill="#190C80"/>
<path fill-rule="evenodd" clip-rule="evenodd" d="M1.46998 14.3674L1.10788 17.4633L3.47528 18.0926L3.83739 14.9967L1.46998 14.3674Z" fill="white"/>
<path fill-rule="evenodd" clip-rule="evenodd" d="M3.83741 14.9967L3.47531 18.0926L5.84402 18.7223L6.20613 15.6263L3.83741 14.9967Z" fill="#190C80"/>
<path fill-rule="evenodd" clip-rule="evenodd" d="M8.9357 13.1598L8.5736 16.2557L10.941 16.885L11.3031 13.7891L8.9357 13.1598Z" fill="white"/>
<path fill-rule="evenodd" clip-rule="evenodd" d="M6.5682 12.5305L6.20611 15.6263L8.57358 16.2557L8.93567 13.1598L6.5682 12.5305Z" fill="#190C80"/>
<path fill-rule="evenodd" clip-rule="evenodd" d="M4.19949 11.9008L3.8374 14.9967L6.20612 15.6264L6.56821 12.5305L4.19949 11.9008Z" fill="white"/>
<path fill-rule="evenodd" clip-rule="evenodd" d="M1.83209 11.2715L1.47 14.3674L3.8374 14.9967L4.1995 11.9008L1.83209 11.2715Z" fill="#190C80"/>
<path fill-rule="evenodd" clip-rule="evenodd" d="M6.20613 15.6263L5.84402 18.7223L8.21149 19.3516L8.57359 16.2557L6.20613 15.6263Z" fill="white"/>
<path fill-rule="evenodd" clip-rule="evenodd" d="M8.57359 16.2557L8.21148 19.3516L10.5789 19.9809L10.941 16.885L8.57359 16.2557Z" fill="#190C80"/>
<path fill-rule="evenodd" clip-rule="evenodd" d="M8.21149 19.3516L7.84939 22.4476L10.2168 23.0769L10.5789 19.9809L8.21149 19.3516Z" fill="white"/>
<path fill-rule="evenodd" clip-rule="evenodd" d="M5.84403 18.7223L5.48192 21.8182L7.8494 22.4476L8.2115 19.3516L5.84403 18.7223Z" fill="#190C80"/>
<path fill-rule="evenodd" clip-rule="evenodd" d="M7.65473 3.24105L7.29253 6.3378L9.66 6.96713L10.0222 3.87038L7.65473 3.24105Z" fill="white"/>
<path fill-rule="evenodd" clip-rule="evenodd" d="M10.0222 3.87039L9.66 6.96714L12.0274 7.59645L12.3896 4.4997L10.0222 3.87039Z" fill="#190C80"/>
<path fill-rule="evenodd" clip-rule="evenodd" d="M9.66001 6.96713L9.2979 10.0631L11.6653 10.6924L12.0274 7.59644L9.66001 6.96713Z" fill="white"/>
<path fill-rule="evenodd" clip-rule="evenodd" d="M7.29252 6.3378L6.93041 9.43374L9.29788 10.0631L9.65999 6.96713L7.29252 6.3378Z" fill="#190C80"/>
<path fill-rule="evenodd" clip-rule="evenodd" d="M2.19432 8.17477L1.83212 11.2715L4.19952 11.9008L4.56173 8.80409L2.19432 8.17477Z" fill="white"/>
<path fill-rule="evenodd" clip-rule="evenodd" d="M4.56169 8.80408L4.19949 11.9008L6.56821 12.5305L6.93041 9.43374L4.56169 8.80408Z" fill="#190C80"/>
<path fill-rule="evenodd" clip-rule="evenodd" d="M6.93043 9.43374L6.56823 12.5305L8.9357 13.1598L9.2979 10.0631L6.93043 9.43374Z" fill="white"/>
<path fill-rule="evenodd" clip-rule="evenodd" d="M9.29789 10.0631L8.93569 13.1598L11.3031 13.7891L11.6653 10.6924L9.29789 10.0631Z" fill="#190C80"/>
<path fill-rule="evenodd" clip-rule="evenodd" d="M4.92381 5.70815L4.5617 8.80409L6.93042 9.43375L7.29253 6.33781L4.92381 5.70815Z" fill="white"/>
<path fill-rule="evenodd" clip-rule="evenodd" d="M2.55641 5.07884L2.1943 8.17478L4.56171 8.80409L4.92381 5.70816L2.55641 5.07884Z" fill="#190C80"/>
<path fill-rule="evenodd" clip-rule="evenodd" d="M2.91859 1.98208L2.55639 5.07883L4.9238 5.70815L5.286 2.61139L2.91859 1.98208Z" fill="white"/>
<path fill-rule="evenodd" clip-rule="evenodd" d="M5.28603 2.61139L4.92382 5.70814L7.29254 6.3378L7.65474 3.24105L5.28603 2.61139Z" fill="#190C80"/>
<path fill-rule="evenodd" clip-rule="evenodd" d="M3.40956 21.2673L3.15831 20.8027L5.54769 18.6435L5.79868 19.1098L3.40956 21.2673Z" fill="#190C80"/>
<path fill-rule="evenodd" clip-rule="evenodd" d="M1.0421 20.638L0.790907 20.1734L3.17892 18.0138L3.42997 18.4801L1.0421 20.638Z" fill="white"/>
<path fill-rule="evenodd" clip-rule="evenodd" d="M3.1789 18.0138L3.52061 17.7051L1.7663 14.4461L1.42465 14.755L3.1789 18.0138Z" fill="#190C80"/>
<path fill-rule="evenodd" clip-rule="evenodd" d="M5.54771 18.6435L5.88935 18.3348L4.13379 15.0755L3.79208 15.3843L5.54771 18.6435Z" fill="white"/>
<path fill-rule="evenodd" clip-rule="evenodd" d="M8.86989 16.3344L8.61882 15.8691L11.0074 13.7105L11.258 14.1749L8.86989 16.3344Z" fill="#190C80"/>
<path fill-rule="evenodd" clip-rule="evenodd" d="M6.50114 15.7048L6.25132 15.2398L8.63933 13.0811L8.89055 13.5456L6.50114 15.7048Z" fill="white"/>
<path fill-rule="evenodd" clip-rule="evenodd" d="M4.13378 15.0755L3.88261 14.6101L6.2719 12.4517L6.52309 12.9163L4.13378 15.0755Z" fill="#190C80"/>
<path fill-rule="evenodd" clip-rule="evenodd" d="M1.76631 14.4461L1.51521 13.9808L3.90312 11.8221L4.15438 12.2866L1.76631 14.4461Z" fill="white"/>
<path fill-rule="evenodd" clip-rule="evenodd" d="M7.91514 19.2728L8.25681 18.9641L6.50116 15.7048L6.16079 16.0139L7.91514 19.2728Z" fill="#190C80"/>
<path fill-rule="evenodd" clip-rule="evenodd" d="M10.2832 19.9023L10.6242 19.5934L8.86987 16.3344L8.52825 16.6433L10.2832 19.9023Z" fill="white"/>
<path fill-rule="evenodd" clip-rule="evenodd" d="M8.14567 22.5263L7.89451 22.0617L10.2832 19.9023L10.5336 20.3685L8.14567 22.5263Z" fill="#190C80"/>
<path fill-rule="evenodd" clip-rule="evenodd" d="M5.77696 21.8967L5.52705 21.4324L7.91515 19.2728L8.16618 19.7391L5.77696 21.8967Z" fill="white"/>
<path fill-rule="evenodd" clip-rule="evenodd" d="M9.72586 3.7916L9.97688 4.25794L7.58757 6.41623L7.33785 5.95032L9.72586 3.7916Z" fill="#190C80"/>
<path fill-rule="evenodd" clip-rule="evenodd" d="M12.0939 4.4211L12.3443 4.88726L9.95628 7.0459L9.70532 6.57966L12.0939 4.4211Z" fill="white"/>
<path fill-rule="evenodd" clip-rule="evenodd" d="M9.9563 7.04589L9.61468 7.35469L11.3696 10.6138L11.7106 10.3048L9.9563 7.04589Z" fill="#190C80"/>
<path fill-rule="evenodd" clip-rule="evenodd" d="M7.58755 6.41622L7.24719 6.72536L9.00153 9.98429L9.34321 9.6755L7.58755 6.41622Z" fill="white"/>
<path fill-rule="evenodd" clip-rule="evenodd" d="M4.26535 8.7253L4.5165 9.19075L2.12843 11.3503L1.87745 10.884L4.26535 8.7253Z" fill="#190C80"/>
<path fill-rule="evenodd" clip-rule="evenodd" d="M6.63409 9.35497L6.88518 9.82041L4.49587 11.9796L4.24482 11.5133L6.63409 9.35497Z" fill="white"/>
<path fill-rule="evenodd" clip-rule="evenodd" d="M9.00155 9.98429L9.25268 10.4497L6.86327 12.6089L6.61356 12.1429L9.00155 9.98429Z" fill="#190C80"/>
<path fill-rule="evenodd" clip-rule="evenodd" d="M11.3696 10.6138L11.6201 11.079L9.23198 13.2386L8.98102 12.7723L11.3696 10.6138Z" fill="white"/>
<path fill-rule="evenodd" clip-rule="evenodd" d="M5.22019 5.78693L4.87848 6.09571L6.6341 9.35498L6.97575 9.04619L5.22019 5.78693Z" fill="#190C80"/>
<path fill-rule="evenodd" clip-rule="evenodd" d="M2.85272 5.15761L2.51108 5.4664L4.26533 8.72531L4.60704 8.41653L2.85272 5.15761Z" fill="white"/>
<path fill-rule="evenodd" clip-rule="evenodd" d="M4.98962 2.53261L5.24067 2.99895L2.85271 5.1576L2.60171 4.69135L4.98962 2.53261Z" fill="#190C80"/>
<path fill-rule="evenodd" clip-rule="evenodd" d="M7.35843 3.16228L7.60941 3.62861L5.2202 5.78692L4.96914 5.32066L7.35843 3.16228Z" fill="white"/>
<path fill-rule="evenodd" clip-rule="evenodd" d="M5.18559 21.7395L5.52703 21.4324L3.77167 18.1714L3.42997 18.4801L5.18559 21.7395Z" fill="#190C80"/>
<path fill-rule="evenodd" clip-rule="evenodd" d="M4.29789 21.5035L5.663 20.2698L4.65999 18.4075L3.29429 19.6402L4.29789 21.5035Z" fill="#190C80"/>
<path fill-rule="evenodd" clip-rule="evenodd" d="M2.81681 21.1098L3.15832 20.8028L1.4042 17.5421L1.06256 17.8508L2.81681 21.1098Z" fill="white"/>
<path fill-rule="evenodd" clip-rule="evenodd" d="M1.93042 20.8742L3.29429 19.6402L2.29253 17.7782L0.926882 19.0109L1.93042 20.8742Z" fill="white"/>
<path fill-rule="evenodd" clip-rule="evenodd" d="M1.40419 17.5421L1.1532 17.0758L3.54101 14.9179L3.79205 15.3843L1.40419 17.5421Z" fill="#190C80"/>
<path fill-rule="evenodd" clip-rule="evenodd" d="M2.29252 17.7782L1.28898 15.9149L2.65462 14.6823L3.65638 16.5442L2.29252 17.7782Z" fill="#190C80"/>
<path fill-rule="evenodd" clip-rule="evenodd" d="M3.77169 18.1714L3.52063 17.7051L5.90982 15.5476L6.1608 16.0139L3.77169 18.1714Z" fill="white"/>
<path fill-rule="evenodd" clip-rule="evenodd" d="M4.66001 18.4076L3.65641 16.5443L5.02212 15.3116L6.02513 17.1739L4.66001 18.4076Z" fill="white"/>
<path fill-rule="evenodd" clip-rule="evenodd" d="M10.6453 16.8064L10.9862 16.4984L9.23198 13.2386L8.89058 13.5456L10.6453 16.8064Z" fill="#190C80"/>
<path fill-rule="evenodd" clip-rule="evenodd" d="M9.75631 16.5701L11.1221 15.3367L10.1184 13.4742L8.75469 14.7074L9.75631 16.5701Z" fill="#190C80"/>
<path fill-rule="evenodd" clip-rule="evenodd" d="M8.27723 16.1769L8.61879 15.8691L6.86324 12.6089L6.52308 12.9163L8.27723 16.1769Z" fill="white"/>
<path fill-rule="evenodd" clip-rule="evenodd" d="M7.38884 15.9407L8.75467 14.7074L7.75094 12.8449L6.3872 14.0781L7.38884 15.9407Z" fill="white"/>
<path fill-rule="evenodd" clip-rule="evenodd" d="M5.9098 15.5476L6.25133 15.2398L4.49587 11.9796L4.15437 12.2866L5.9098 15.5476Z" fill="#190C80"/>
<path fill-rule="evenodd" clip-rule="evenodd" d="M5.0221 15.3116L6.38721 14.0781L5.3842 12.2158L4.01849 13.4484L5.0221 15.3116Z" fill="#190C80"/>
<path fill-rule="evenodd" clip-rule="evenodd" d="M3.54102 14.9179L3.88262 14.6101L2.12841 11.3503L1.78697 11.6573L3.54102 14.9179Z" fill="white"/>
<path fill-rule="evenodd" clip-rule="evenodd" d="M2.65464 14.6823L4.01849 13.4484L3.01673 11.5864L1.65109 12.8191L2.65464 14.6823Z" fill="white"/>
<path fill-rule="evenodd" clip-rule="evenodd" d="M6.13905 18.8007L5.88934 18.3348L8.27725 16.1769L8.52826 16.6433L6.13905 18.8007Z" fill="#190C80"/>
<path fill-rule="evenodd" clip-rule="evenodd" d="M7.02675 19.0367L6.02512 17.1739L7.38886 15.9407L8.39259 17.8032L7.02675 19.0367Z" fill="#190C80"/>
<path fill-rule="evenodd" clip-rule="evenodd" d="M8.50776 19.4304L8.2568 18.9641L10.6453 16.8064L10.8957 17.2726L8.50776 19.4304Z" fill="white"/>
<path fill-rule="evenodd" clip-rule="evenodd" d="M9.39418 19.666L8.39258 17.8032L9.75629 16.5701L10.76 18.4325L9.39418 19.666Z" fill="white"/>
<path fill-rule="evenodd" clip-rule="evenodd" d="M9.92111 22.9983L10.2619 22.6911L8.50778 19.4304L8.16617 19.7391L9.92111 22.9983Z" fill="#190C80"/>
<path fill-rule="evenodd" clip-rule="evenodd" d="M9.03209 22.762L10.3979 21.5285L9.3942 19.666L8.03049 20.8992L9.03209 22.762Z" fill="#190C80"/>
<path fill-rule="evenodd" clip-rule="evenodd" d="M7.55305 22.3688L7.89452 22.0617L6.13907 18.8007L5.79871 19.1098L7.55305 22.3688Z" fill="white"/>
<path fill-rule="evenodd" clip-rule="evenodd" d="M6.66466 22.1326L8.0305 20.8992L7.02677 19.0367L5.66303 20.2699L6.66466 22.1326Z" fill="white"/>
<path fill-rule="evenodd" clip-rule="evenodd" d="M7.94977 3.31948L7.60941 3.62861L9.36366 6.88836L9.70532 6.57965L7.94977 3.31948Z" fill="#190C80"/>
<path fill-rule="evenodd" clip-rule="evenodd" d="M8.83747 3.55545L7.47353 4.79032L8.47527 6.6522L9.841 5.41965L8.83747 3.55545Z" fill="#190C80"/>
<path fill-rule="evenodd" clip-rule="evenodd" d="M10.3185 3.94915L9.97687 4.25795L11.7317 7.51785L12.0727 7.20897L10.3185 3.94915Z" fill="white"/>
<path fill-rule="evenodd" clip-rule="evenodd" d="M11.2049 4.18478L9.84099 5.41965L10.8427 7.28153L12.2084 6.04897L11.2049 4.18478Z" fill="white"/>
<path fill-rule="evenodd" clip-rule="evenodd" d="M10.8427 7.28152L11.8464 9.14401L10.4806 10.3775L9.47901 8.5147L10.8427 7.28152Z" fill="#190C80"/>
<path fill-rule="evenodd" clip-rule="evenodd" d="M9.36364 6.88835L9.61466 7.35469L7.22545 9.51216L6.97574 9.04618L9.36364 6.88835Z" fill="white"/>
<path fill-rule="evenodd" clip-rule="evenodd" d="M8.47525 6.6522L9.47898 8.51469L8.11315 9.74813L7.11151 7.88536L8.47525 6.6522Z" fill="white"/>
<path fill-rule="evenodd" clip-rule="evenodd" d="M2.49063 8.25354L2.14909 8.56144L3.90315 11.822L4.24485 11.5133L2.49063 8.25354Z" fill="#190C80"/>
<path fill-rule="evenodd" clip-rule="evenodd" d="M3.37896 8.48968L2.01322 9.72315L3.01676 11.5864L4.38062 10.3525L3.37896 8.48968Z" fill="#190C80"/>
<path fill-rule="evenodd" clip-rule="evenodd" d="M4.85807 8.88286L4.51646 9.19075L6.27189 12.4517L6.61354 12.1429L4.85807 8.88286Z" fill="white"/>
<path fill-rule="evenodd" clip-rule="evenodd" d="M5.74639 9.119L4.38059 10.3525L5.38419 12.2157L6.74931 10.9821L5.74639 9.119Z" fill="white"/>
<path fill-rule="evenodd" clip-rule="evenodd" d="M7.22547 9.51217L6.88521 9.82041L8.63935 13.081L8.98103 12.7723L7.22547 9.51217Z" fill="#190C80"/>
<path fill-rule="evenodd" clip-rule="evenodd" d="M8.11317 9.74814L6.74933 10.9821L7.75097 12.8449L9.1168 11.6114L8.11317 9.74814Z" fill="#190C80"/>
<path fill-rule="evenodd" clip-rule="evenodd" d="M9.59418 10.1418L9.25267 10.4497L11.0074 13.7105L11.3484 13.4016L9.59418 10.1418Z" fill="white"/>
<path fill-rule="evenodd" clip-rule="evenodd" d="M10.4806 10.3775L9.11679 11.6114L10.1184 13.4742L11.4842 12.2407L10.4806 10.3775Z" fill="white"/>
<path fill-rule="evenodd" clip-rule="evenodd" d="M6.99621 6.25904L7.2472 6.72537L4.85808 8.88287L4.60703 8.41653L6.99621 6.25904Z" fill="#190C80"/>
<path fill-rule="evenodd" clip-rule="evenodd" d="M6.10851 6.02307L7.11152 7.88537L5.74641 9.11901L4.7428 7.25571L6.10851 6.02307Z" fill="#190C80"/>
<path fill-rule="evenodd" clip-rule="evenodd" d="M4.62743 5.62937L4.87848 6.09572L2.49062 8.25355L2.23963 7.78722L4.62743 5.62937Z" fill="white"/>
<path fill-rule="evenodd" clip-rule="evenodd" d="M3.74105 5.39375L4.74281 7.25572L3.37894 8.48969L2.3754 6.62641L3.74105 5.39375Z" fill="white"/>
<path fill-rule="evenodd" clip-rule="evenodd" d="M3.21491 2.06085L2.87326 2.36964L4.62742 5.62936L4.96912 5.32067L3.21491 2.06085Z" fill="#190C80"/>
<path fill-rule="evenodd" clip-rule="evenodd" d="M4.10323 2.29699L2.73739 3.53135L3.74103 5.39374L5.10479 4.16066L4.10323 2.29699Z" fill="#190C80"/>
<path fill-rule="evenodd" clip-rule="evenodd" d="M5.5824 2.69018L5.2407 2.99895L6.99623 6.25903L7.33786 5.95032L5.5824 2.69018Z" fill="white"/>
<path fill-rule="evenodd" clip-rule="evenodd" d="M6.47073 2.92631L5.10482 4.16066L6.10853 6.02306L7.47354 4.79032L6.47073 2.92631Z" fill="white"/>
<path fill-rule="evenodd" clip-rule="evenodd" d="M3.97664 19.025L3.79003 20.6206L4.97473 20.9355L5.16135 19.34L3.97664 19.025Z" fill="white"/>
<path fill-rule="evenodd" clip-rule="evenodd" d="M1.60924 18.3957L1.42262 19.9913L2.60602 20.3058L2.79264 18.7103L1.60924 18.3957Z" fill="#190C80"/>
<path fill-rule="evenodd" clip-rule="evenodd" d="M4.41101 20.5364L4.92281 20.0731L4.54668 19.3764L4.03448 19.837L4.41101 20.5364Z" fill="#190C80"/>
<path fill-rule="evenodd" clip-rule="evenodd" d="M2.04353 19.907L2.55471 19.4436L2.17921 18.747L1.66707 19.2076L2.04353 19.907Z" fill="white"/>
<path fill-rule="evenodd" clip-rule="evenodd" d="M1.97146 15.299L1.78484 16.8945L2.96823 17.2091L3.15485 15.6135L1.97146 15.299Z" fill="white"/>
<path fill-rule="evenodd" clip-rule="evenodd" d="M4.33886 15.9283L4.15224 17.5238L5.33694 17.8387L5.52356 16.2432L4.33886 15.9283Z" fill="#190C80"/>
<path fill-rule="evenodd" clip-rule="evenodd" d="M2.40574 16.8103L2.02919 16.1117L2.54142 15.6503L2.91683 16.3477L2.40574 16.8103Z" fill="#190C80"/>
<path fill-rule="evenodd" clip-rule="evenodd" d="M4.77322 17.4396L4.3966 16.741L4.9089 16.2796L5.28493 16.9772L4.77322 17.4396Z" fill="white"/>
<path fill-rule="evenodd" clip-rule="evenodd" d="M9.43723 14.0905L9.25051 15.6869L10.4339 16.0015L10.6206 14.4051L9.43723 14.0905Z" fill="white"/>
<path fill-rule="evenodd" clip-rule="evenodd" d="M7.06911 13.461L6.88239 15.0574L8.06644 15.3722L8.25316 13.7757L7.06911 13.461Z" fill="#190C80"/>
<path fill-rule="evenodd" clip-rule="evenodd" d="M9.8694 15.603L10.3819 15.14L10.0054 14.4405L9.49485 14.9041L9.8694 15.603Z" fill="#190C80"/>
<path fill-rule="evenodd" clip-rule="evenodd" d="M7.50197 14.9737L8.01446 14.5106L7.63794 13.8112L7.12676 14.2746L7.50197 14.9737Z" fill="white"/>
<path fill-rule="evenodd" clip-rule="evenodd" d="M4.70105 12.8315L4.51433 14.4279L5.69904 14.7429L5.88575 13.1464L4.70105 12.8315Z" fill="white"/>
<path fill-rule="evenodd" clip-rule="evenodd" d="M2.33365 12.2022L2.14693 13.7986L3.33032 14.1132L3.51704 12.5168L2.33365 12.2022Z" fill="#190C80"/>
<path fill-rule="evenodd" clip-rule="evenodd" d="M5.13522 14.3446L5.64703 13.8813L5.27119 13.182L4.75869 13.6452L5.13522 14.3446Z" fill="#190C80"/>
<path fill-rule="evenodd" clip-rule="evenodd" d="M2.76774 13.7152L3.27892 13.2518L2.90372 12.5527L2.39128 13.0158L2.76774 13.7152Z" fill="white"/>
<path fill-rule="evenodd" clip-rule="evenodd" d="M6.70692 16.5578L6.5203 18.1533L7.70435 18.4681L7.89096 16.8725L6.70692 16.5578Z" fill="white"/>
<path fill-rule="evenodd" clip-rule="evenodd" d="M9.07501 17.1873L8.88839 18.7828L10.0718 19.0974L10.2584 17.5018L9.07501 17.1873Z" fill="#190C80"/>
<path fill-rule="evenodd" clip-rule="evenodd" d="M7.13997 18.0688L6.76466 17.3705L7.27564 16.9088L7.65236 17.6065L7.13997 18.0688Z" fill="#190C80"/>
<path fill-rule="evenodd" clip-rule="evenodd" d="M9.5074 18.6981L9.13275 18L9.64307 17.5381L10.0198 18.2358L9.5074 18.6981Z" fill="white"/>
<path fill-rule="evenodd" clip-rule="evenodd" d="M8.71279 20.284L8.52617 21.8796L9.70959 22.1942L9.89621 20.5986L8.71279 20.284Z" fill="white"/>
<path fill-rule="evenodd" clip-rule="evenodd" d="M6.3447 19.6545L6.15808 21.2501L7.34213 21.5648L7.52875 19.9693L6.3447 19.6545Z" fill="#190C80"/>
<path fill-rule="evenodd" clip-rule="evenodd" d="M9.14522 21.7948L9.65774 21.3318L9.28089 20.6348L8.77066 21.0959L9.14522 21.7948Z" fill="#190C80"/>
<path fill-rule="evenodd" clip-rule="evenodd" d="M6.77775 21.1655L7.29024 20.7024L6.91343 20.0055L6.40254 20.4664L6.77775 21.1655Z" fill="white"/>
<path fill-rule="evenodd" clip-rule="evenodd" d="M8.16104 4.1253L7.97452 5.71997L9.15857 6.03471L9.34508 4.44005L8.16104 4.1253Z" fill="white"/>
<path fill-rule="evenodd" clip-rule="evenodd" d="M10.5291 4.75479L10.3426 6.34945L11.526 6.66403L11.7125 5.06937L10.5291 4.75479Z" fill="#190C80"/>
<path fill-rule="evenodd" clip-rule="evenodd" d="M8.72426 4.5234L8.21307 4.9869L8.58848 5.68424L9.10077 5.22287L8.72426 4.5234Z" fill="#190C80"/>
<path fill-rule="evenodd" clip-rule="evenodd" d="M11.0917 5.15272L10.5812 5.6164L10.9559 6.31356L11.4682 5.8522L11.0917 5.15272Z" fill="white"/>
<path fill-rule="evenodd" clip-rule="evenodd" d="M7.79905 7.22034L7.61234 8.81672L8.79639 9.13147L8.9831 7.53509L7.79905 7.22034Z" fill="#190C80"/>
<path fill-rule="evenodd" clip-rule="evenodd" d="M8.36214 7.61936L8.73876 8.31792L8.22627 8.78098L7.85106 8.08195L8.36214 7.61936Z" fill="white"/>
<path fill-rule="evenodd" clip-rule="evenodd" d="M2.70138 9.05829L2.51458 10.6554L3.69797 10.97L3.88477 9.37286L2.70138 9.05829Z" fill="white"/>
<path fill-rule="evenodd" clip-rule="evenodd" d="M5.06878 9.6876L4.88198 11.2848L6.06668 11.5997L6.25349 10.0025L5.06878 9.6876Z" fill="#190C80"/>
<path fill-rule="evenodd" clip-rule="evenodd" d="M3.26583 9.45683L2.7534 9.9199L3.12986 10.6193L3.64104 10.1559L3.26583 9.45683Z" fill="#190C80"/>
<path fill-rule="evenodd" clip-rule="evenodd" d="M5.6333 10.0862L5.12081 10.5492L5.49734 11.2486L6.00914 10.7854L5.6333 10.0862Z" fill="white"/>
<path fill-rule="evenodd" clip-rule="evenodd" d="M7.43684 10.3171L7.25003 11.9142L8.43408 12.229L8.62089 10.6318L7.43684 10.3171Z" fill="white"/>
<path fill-rule="evenodd" clip-rule="evenodd" d="M9.80493 10.9466L9.61812 12.5437L10.8015 12.8583L10.9884 11.2612L9.80493 10.9466Z" fill="#190C80"/>
<path fill-rule="evenodd" clip-rule="evenodd" d="M8.00005 10.7153L7.48887 11.1787L7.86409 11.8777L8.37657 11.4147L8.00005 10.7153Z" fill="#190C80"/>
<path fill-rule="evenodd" clip-rule="evenodd" d="M10.3675 11.3446L9.85696 11.8082L10.2315 12.5071L10.744 12.044L10.3675 11.3446Z" fill="white"/>
<path fill-rule="evenodd" clip-rule="evenodd" d="M5.43096 6.59084L5.24425 8.18721L6.42896 8.50214L6.61567 6.90576L5.43096 6.59084Z" fill="white"/>
<path fill-rule="evenodd" clip-rule="evenodd" d="M3.06356 5.96153L2.87685 7.55791L4.06024 7.87248L4.24696 6.2761L3.06356 5.96153Z" fill="#190C80"/>
<path fill-rule="evenodd" clip-rule="evenodd" d="M5.99539 6.99022L6.37133 7.6886L5.85952 8.15184L5.48299 7.45247L5.99539 6.99022Z" fill="#190C80"/>
<path fill-rule="evenodd" clip-rule="evenodd" d="M3.62791 6.3609L4.00322 7.05912L3.49205 7.52252L3.11558 6.82316L3.62791 6.3609Z" fill="white"/>
<path fill-rule="evenodd" clip-rule="evenodd" d="M3.42558 2.8665L3.23906 4.46117L4.42245 4.77574L4.60897 3.18108L3.42558 2.8665Z" fill="white"/>
<path fill-rule="evenodd" clip-rule="evenodd" d="M5.79298 3.49581L5.60646 5.09047L6.79117 5.4054L6.97768 3.81073L5.79298 3.49581Z" fill="#190C80"/>
<path fill-rule="evenodd" clip-rule="evenodd" d="M3.99003 3.26494L3.4776 3.72811L3.85426 4.42578L4.36524 3.96406L3.99003 3.26494Z" fill="#190C80"/>
<path fill-rule="evenodd" clip-rule="evenodd" d="M6.35751 3.89426L5.84501 4.35741L6.22174 5.0551L6.73334 4.59355L6.35751 3.89426Z" fill="white"/>
<path fill-rule="evenodd" clip-rule="evenodd" d="M11.7317 7.51784L11.9821 7.984L9.59419 10.1418L9.34323 9.67551L11.7317 7.51784Z" fill="#190C80"/>
<path fill-rule="evenodd" clip-rule="evenodd" d="M10.1671 7.84983L9.98043 9.44621L11.1638 9.76079L11.3506 8.16441L10.1671 7.84983Z" fill="white"/>
<path fill-rule="evenodd" clip-rule="evenodd" d="M10.7296 8.24868L11.1062 8.94726L10.5937 9.4103L10.2191 8.71145L10.7296 8.24868Z" fill="#190C80"/>
<path fill-rule="evenodd" clip-rule="evenodd" d="M2.60741 1.6037L12.6993 4.28635L10.4468 23.5443L0.354962 20.8616L2.60741 1.6037Z" stroke="#1E0C7D" stroke-width="3.73459" stroke-miterlimit="10" stroke-linejoin="round"/>
</g>
<g clip-path="url(#clip1)">
<path d="M9.26991 1.7383C9.25518 1.42069 9.44309 1.13964 9.68832 1.11379L19.5937 0.0695772C19.8383 0.0437893 20.0504 0.282673 20.0651 0.600285L20.956 19.8073C20.9708 20.1249 20.7828 20.406 20.5382 20.4318L10.6328 21.476C10.3876 21.5018 10.1755 21.2629 10.1608 20.9453L9.26991 1.7383Z" fill="white" stroke="black" stroke-width="0.622432"/>
<path fill-rule="evenodd" clip-rule="evenodd" d="M13.0524 17.3032L13.1979 20.4392L15.5973 20.1863L15.4518 17.0502L13.0524 17.3032Z" fill="white"/>
<path fill-rule="evenodd" clip-rule="evenodd" d="M10.6543 17.556L10.7998 20.692L13.1979 20.4392L13.0524 17.3032L10.6543 17.556Z" fill="#190C80"/>
<path fill-rule="evenodd" clip-rule="evenodd" d="M10.5089 14.4199L10.6544 17.556L13.0524 17.3032L12.907 14.1671L10.5089 14.4199Z" fill="white"/>
<path fill-rule="evenodd" clip-rule="evenodd" d="M12.9069 14.1671L13.0524 17.3032L15.4518 17.0502L15.3063 13.9142L12.9069 14.1671Z" fill="#190C80"/>
<path fill-rule="evenodd" clip-rule="evenodd" d="M17.559 10.5254L17.7045 13.6614L20.1026 13.4086L19.9571 10.2726L17.559 10.5254Z" fill="white"/>
<path fill-rule="evenodd" clip-rule="evenodd" d="M15.1609 10.7782L15.3064 13.9142L17.7045 13.6614L17.559 10.5254L15.1609 10.7782Z" fill="#190C80"/>
<path fill-rule="evenodd" clip-rule="evenodd" d="M12.7615 11.0312L12.907 14.1671L15.3064 13.9142L15.1609 10.7782L12.7615 11.0312Z" fill="white"/>
<path fill-rule="evenodd" clip-rule="evenodd" d="M10.3634 11.284L10.5089 14.4199L12.907 14.1671L12.7615 11.0312L10.3634 11.284Z" fill="#190C80"/>
<path fill-rule="evenodd" clip-rule="evenodd" d="M15.3063 13.9142L15.4518 17.0502L17.8499 16.7974L17.7045 13.6614L15.3063 13.9142Z" fill="white"/>
<path fill-rule="evenodd" clip-rule="evenodd" d="M17.7045 13.6614L17.8499 16.7974L20.248 16.5446L20.1026 13.4086L17.7045 13.6614Z" fill="#190C80"/>
<path fill-rule="evenodd" clip-rule="evenodd" d="M17.85 16.7974L17.9954 19.9335L20.3935 19.6806L20.248 16.5446L17.85 16.7974Z" fill="white"/>
<path fill-rule="evenodd" clip-rule="evenodd" d="M15.4518 17.0502L15.5973 20.1863L17.9954 19.9335L17.85 16.7974L15.4518 17.0502Z" fill="#190C80"/>
<path fill-rule="evenodd" clip-rule="evenodd" d="M14.7244 1.36846L14.8699 4.50533L17.2681 4.25252L17.1226 1.11565L14.7244 1.36846Z" fill="white"/>
<path fill-rule="evenodd" clip-rule="evenodd" d="M17.1226 1.11567L17.2681 4.25253L19.6661 3.99973L19.5206 0.862864L17.1226 1.11567Z" fill="#190C80"/>
<path fill-rule="evenodd" clip-rule="evenodd" d="M17.2681 4.25252L17.4135 7.38856L19.8116 7.13576L19.6662 3.99972L17.2681 4.25252Z" fill="white"/>
<path fill-rule="evenodd" clip-rule="evenodd" d="M14.8699 4.50532L15.0154 7.64136L17.4135 7.38855L17.2681 4.25251L14.8699 4.50532Z" fill="#190C80"/>
<path fill-rule="evenodd" clip-rule="evenodd" d="M10.2179 8.14711L10.3634 11.284L12.7615 11.0312L12.616 7.89431L10.2179 8.14711Z" fill="white"/>
<path fill-rule="evenodd" clip-rule="evenodd" d="M12.616 7.89431L12.7615 11.0312L15.1609 10.7782L15.0154 7.64137L12.616 7.89431Z" fill="#190C80"/>
<path fill-rule="evenodd" clip-rule="evenodd" d="M15.0154 7.64137L15.1609 10.7782L17.559 10.5254L17.4135 7.38856L15.0154 7.64137Z" fill="white"/>
<path fill-rule="evenodd" clip-rule="evenodd" d="M17.4135 7.38855L17.559 10.5254L19.9571 10.2726L19.8116 7.13575L17.4135 7.38855Z" fill="#190C80"/>
<path fill-rule="evenodd" clip-rule="evenodd" d="M12.4706 4.75827L12.616 7.89431L15.0154 7.64137L14.8699 4.50533L12.4706 4.75827Z" fill="white"/>
<path fill-rule="evenodd" clip-rule="evenodd" d="M10.0725 5.01106L10.2179 8.1471L12.616 7.8943L12.4705 4.75826L10.0725 5.01106Z" fill="#190C80"/>
<path fill-rule="evenodd" clip-rule="evenodd" d="M9.92698 1.87421L10.0725 5.01107L12.4706 4.75827L12.3251 1.62141L9.92698 1.87421Z" fill="white"/>
<path fill-rule="evenodd" clip-rule="evenodd" d="M12.325 1.62141L12.4705 4.75827L14.8699 4.50533L14.7244 1.36847L12.325 1.62141Z" fill="#190C80"/>
<path fill-rule="evenodd" clip-rule="evenodd" d="M13.4981 20.4076L13.1798 20.0484L15.1517 17.0819L15.47 17.4428L13.4981 20.4076Z" fill="#190C80"/>
<path fill-rule="evenodd" clip-rule="evenodd" d="M11.1 20.6604L10.7817 20.3012L12.7522 17.3348L13.0706 17.6957L11.1 20.6604Z" fill="white"/>
<path fill-rule="evenodd" clip-rule="evenodd" d="M12.7522 17.3348L13.0342 16.9106L10.8091 14.3883L10.5271 14.8125L12.7522 17.3348Z" fill="#190C80"/>
<path fill-rule="evenodd" clip-rule="evenodd" d="M15.1517 17.0819L15.4336 16.6577L13.2072 14.1355L12.9252 14.5597L15.1517 17.0819Z" fill="white"/>
<path fill-rule="evenodd" clip-rule="evenodd" d="M18.0046 13.6297L17.6863 13.2698L19.6576 10.3042L19.9752 10.6634L18.0046 13.6297Z" fill="#190C80"/>
<path fill-rule="evenodd" clip-rule="evenodd" d="M15.6052 13.8827L15.2882 13.5226L17.2589 10.5571L17.5772 10.9162L15.6052 13.8827Z" fill="white"/>
<path fill-rule="evenodd" clip-rule="evenodd" d="M13.2072 14.1355L12.8888 13.7755L14.8608 10.8099L15.179 11.169L13.2072 14.1355Z" fill="#190C80"/>
<path fill-rule="evenodd" clip-rule="evenodd" d="M10.809 14.3883L10.4907 14.0283L12.4613 11.0628L12.7796 11.422L10.809 14.3883Z" fill="white"/>
<path fill-rule="evenodd" clip-rule="evenodd" d="M17.5498 16.8291L17.8317 16.4049L15.6052 13.8827L15.3246 14.3068L17.5498 16.8291Z" fill="#190C80"/>
<path fill-rule="evenodd" clip-rule="evenodd" d="M19.9485 16.5762L20.2298 16.1521L18.0046 13.6297L17.7227 14.054L19.9485 16.5762Z" fill="white"/>
<path fill-rule="evenodd" clip-rule="evenodd" d="M18.2955 19.9018L17.9773 19.5426L19.9485 16.5762L20.2662 16.9371L18.2955 19.9018Z" fill="#190C80"/>
<path fill-rule="evenodd" clip-rule="evenodd" d="M15.8961 20.1548L15.5792 19.7955L17.5498 16.8291L17.8682 17.19L15.8961 20.1548Z" fill="white"/>
<path fill-rule="evenodd" clip-rule="evenodd" d="M16.8224 1.1473L17.1408 1.50823L15.1688 4.47382L14.8517 4.11283L16.8224 1.1473Z" fill="#190C80"/>
<path fill-rule="evenodd" clip-rule="evenodd" d="M19.2211 0.89444L19.5388 1.25544L17.5682 4.22089L17.2499 3.86003L19.2211 0.89444Z" fill="white"/>
<path fill-rule="evenodd" clip-rule="evenodd" d="M17.5682 4.22088L17.2863 4.6451L19.5121 7.16733L19.7934 6.74318L17.5682 4.22088Z" fill="#190C80"/>
<path fill-rule="evenodd" clip-rule="evenodd" d="M15.1688 4.47381L14.8882 4.8979L17.1134 7.4202L17.3953 6.99597L15.1688 4.47381Z" fill="white"/>
<path fill-rule="evenodd" clip-rule="evenodd" d="M12.3158 7.92596L12.6342 8.28599L10.6636 11.2523L10.3452 10.8914L12.3158 7.92596Z" fill="#190C80"/>
<path fill-rule="evenodd" clip-rule="evenodd" d="M14.7152 7.67301L15.0336 8.03304L13.0617 10.9995L12.7433 10.6386L14.7152 7.67301Z" fill="white"/>
<path fill-rule="evenodd" clip-rule="evenodd" d="M17.1133 7.4202L17.4317 7.78023L15.4597 10.7467L15.1427 10.3856L17.1133 7.4202Z" fill="#190C80"/>
<path fill-rule="evenodd" clip-rule="evenodd" d="M19.5121 7.16733L19.8298 7.52743L17.8591 10.4938L17.5408 10.1328L19.5121 7.16733Z" fill="white"/>
<path fill-rule="evenodd" clip-rule="evenodd" d="M12.7708 4.72662L12.4888 5.15085L14.7153 7.67301L14.9972 7.24879L12.7708 4.72662Z" fill="#190C80"/>
<path fill-rule="evenodd" clip-rule="evenodd" d="M10.3726 4.97942L10.0907 5.40364L12.3158 7.92595L12.5978 7.50172L10.3726 4.97942Z" fill="white"/>
<path fill-rule="evenodd" clip-rule="evenodd" d="M12.0248 1.65306L12.3433 2.01399L10.3726 4.97943L10.0543 4.61857L12.0248 1.65306Z" fill="#190C80"/>
<path fill-rule="evenodd" clip-rule="evenodd" d="M14.4243 1.40011L14.7426 1.76105L12.7708 4.72662L12.4523 4.36577L14.4243 1.40011Z" fill="white"/>
<path fill-rule="evenodd" clip-rule="evenodd" d="M15.2971 20.2179L15.5792 19.7954L13.3526 17.2715L13.0706 17.6957L15.2971 20.2179Z" fill="#190C80"/>
<path fill-rule="evenodd" clip-rule="evenodd" d="M14.3979 20.3127L15.5245 18.6178L14.2525 17.1767L13.1251 18.8708L14.3979 20.3127Z" fill="#190C80"/>
<path fill-rule="evenodd" clip-rule="evenodd" d="M12.8977 20.4709L13.1797 20.0484L10.9545 17.5243L10.6726 17.9485L12.8977 20.4709Z" fill="white"/>
<path fill-rule="evenodd" clip-rule="evenodd" d="M11.9998 20.5655L13.1251 18.8708L11.8543 17.4295L10.7271 19.1236L11.9998 20.5655Z" fill="white"/>
<path fill-rule="evenodd" clip-rule="evenodd" d="M10.9545 17.5243L10.6362 17.1634L12.6067 14.1988L12.9252 14.5597L10.9545 17.5243Z" fill="#190C80"/>
<path fill-rule="evenodd" clip-rule="evenodd" d="M11.8543 17.4295L10.5816 15.9875L11.7089 14.2934L12.9797 15.7347L11.8543 17.4295Z" fill="#190C80"/>
<path fill-rule="evenodd" clip-rule="evenodd" d="M13.3526 17.2715L13.0342 16.9106L15.0062 13.9458L15.3246 14.3068L13.3526 17.2715Z" fill="white"/>
<path fill-rule="evenodd" clip-rule="evenodd" d="M14.2525 17.1767L12.9797 15.7347L14.107 14.0406L15.3791 15.4818L14.2525 17.1767Z" fill="white"/>
<path fill-rule="evenodd" clip-rule="evenodd" d="M19.803 13.4401L20.0844 13.017L17.8592 10.4938L17.5772 10.9162L19.803 13.4401Z" fill="#190C80"/>
<path fill-rule="evenodd" clip-rule="evenodd" d="M18.9025 13.5351L20.0298 11.8402L18.7571 10.3991L17.6317 12.093L18.9025 13.5351Z" fill="#190C80"/>
<path fill-rule="evenodd" clip-rule="evenodd" d="M17.4043 13.693L17.6863 13.2698L15.4598 10.7467L15.179 11.169L17.4043 13.693Z" fill="white"/>
<path fill-rule="evenodd" clip-rule="evenodd" d="M16.5044 13.7879L17.6318 12.093L16.359 10.6519L15.2336 12.3458L16.5044 13.7879Z" fill="white"/>
<path fill-rule="evenodd" clip-rule="evenodd" d="M15.0062 13.9458L15.2882 13.5226L13.0617 10.9995L12.7796 11.4219L15.0062 13.9458Z" fill="#190C80"/>
<path fill-rule="evenodd" clip-rule="evenodd" d="M14.107 14.0406L15.2336 12.3458L13.9616 10.9047L12.8342 12.5988L14.107 14.0406Z" fill="#190C80"/>
<path fill-rule="evenodd" clip-rule="evenodd" d="M12.6067 14.1988L12.8888 13.7755L10.6636 11.2523L10.3816 11.6748L12.6067 14.1988Z" fill="white"/>
<path fill-rule="evenodd" clip-rule="evenodd" d="M11.7089 14.2934L12.8342 12.5988L11.5634 11.1575L10.4361 12.8516L11.7089 14.2934Z" fill="white"/>
<path fill-rule="evenodd" clip-rule="evenodd" d="M15.7507 17.0187L15.4336 16.6577L17.4043 13.693L17.7227 14.054L15.7507 17.0187Z" fill="#190C80"/>
<path fill-rule="evenodd" clip-rule="evenodd" d="M16.6499 16.9239L15.3791 15.4818L16.5044 13.7879L17.7772 15.229L16.6499 16.9239Z" fill="#190C80"/>
<path fill-rule="evenodd" clip-rule="evenodd" d="M18.1501 16.7658L17.8317 16.4049L19.803 13.4401L20.1208 13.8012L18.1501 16.7658Z" fill="white"/>
<path fill-rule="evenodd" clip-rule="evenodd" d="M19.048 16.6711L17.7772 15.229L18.9025 13.5351L20.1753 14.9762L19.048 16.6711Z" fill="white"/>
<path fill-rule="evenodd" clip-rule="evenodd" d="M20.094 19.7122L20.3754 19.2898L18.1501 16.7658L17.8682 17.19L20.094 19.7122Z" fill="#190C80"/>
<path fill-rule="evenodd" clip-rule="evenodd" d="M19.1934 19.8072L20.3207 18.1122L19.048 16.6711L17.9227 18.365L19.1934 19.8072Z" fill="#190C80"/>
<path fill-rule="evenodd" clip-rule="evenodd" d="M17.6952 19.9651L17.9773 19.5426L15.7507 17.0187L15.47 17.4428L17.6952 19.9651Z" fill="white"/>
<path fill-rule="evenodd" clip-rule="evenodd" d="M16.7953 20.06L17.9227 18.365L16.6499 16.9239L15.5245 18.6178L16.7953 20.06Z" fill="white"/>
<path fill-rule="evenodd" clip-rule="evenodd" d="M15.0233 1.33696L14.7426 1.76104L16.9679 4.28416L17.2499 3.86002L15.0233 1.33696Z" fill="#190C80"/>
<path fill-rule="evenodd" clip-rule="evenodd" d="M15.9225 1.24217L14.7972 2.9378L16.068 4.37903L17.1954 2.68499L15.9225 1.24217Z" fill="#190C80"/>
<path fill-rule="evenodd" clip-rule="evenodd" d="M17.4227 1.08403L17.1408 1.50825L19.3666 4.0313L19.6479 3.60723L17.4227 1.08403Z" fill="white"/>
<path fill-rule="evenodd" clip-rule="evenodd" d="M18.3206 0.989372L17.1954 2.685L18.4661 4.12623L19.5934 2.4322L18.3206 0.989372Z" fill="white"/>
<path fill-rule="evenodd" clip-rule="evenodd" d="M18.4661 4.12622L19.7389 5.56733L18.6116 7.26227L17.3408 5.82013L18.4661 4.12622Z" fill="#190C80"/>
<path fill-rule="evenodd" clip-rule="evenodd" d="M16.9679 4.28415L17.2863 4.64509L15.3143 7.60985L14.9972 7.24878L16.9679 4.28415Z" fill="white"/>
<path fill-rule="evenodd" clip-rule="evenodd" d="M16.068 4.37902L17.3408 5.82012L16.2135 7.51506L14.9427 6.07293L16.068 4.37902Z" fill="white"/>
<path fill-rule="evenodd" clip-rule="evenodd" d="M10.5181 8.11547L10.2361 8.53879L12.4613 11.0628L12.7433 10.6386L10.5181 8.11547Z" fill="#190C80"/>
<path fill-rule="evenodd" clip-rule="evenodd" d="M11.4179 8.02061L10.2907 9.71554L11.5634 11.1575L12.6888 9.46274L11.4179 8.02061Z" fill="#190C80"/>
<path fill-rule="evenodd" clip-rule="evenodd" d="M12.9162 7.86266L12.6342 8.28598L14.8607 10.8099L15.1427 10.3856L12.9162 7.86266Z" fill="white"/>
<path fill-rule="evenodd" clip-rule="evenodd" d="M13.816 7.7678L12.6887 9.46274L13.9615 10.9047L15.0881 9.2098L13.816 7.7678Z" fill="white"/>
<path fill-rule="evenodd" clip-rule="evenodd" d="M15.3142 7.60986L15.0336 8.03304L17.2588 10.5571L17.5408 10.1328L15.3142 7.60986Z" fill="#190C80"/>
<path fill-rule="evenodd" clip-rule="evenodd" d="M16.2134 7.51507L15.0881 9.2098L16.3589 10.6519L17.4863 8.95699L16.2134 7.51507Z" fill="#190C80"/>
<path fill-rule="evenodd" clip-rule="evenodd" d="M17.7136 7.35691L17.4317 7.78023L19.6576 10.3042L19.9389 9.88003L17.7136 7.35691Z" fill="white"/>
<path fill-rule="evenodd" clip-rule="evenodd" d="M18.6115 7.26226L17.4863 8.95698L18.757 10.3991L19.8843 8.70418L18.6115 7.26226Z" fill="white"/>
<path fill-rule="evenodd" clip-rule="evenodd" d="M14.5698 4.53697L14.8882 4.89791L12.9162 7.86267L12.5978 7.50173L14.5698 4.53697Z" fill="#190C80"/>
<path fill-rule="evenodd" clip-rule="evenodd" d="M13.6706 4.63176L14.9427 6.07294L13.8161 7.76781L12.5433 6.32588L13.6706 4.63176Z" fill="#190C80"/>
<path fill-rule="evenodd" clip-rule="evenodd" d="M12.1703 4.78991L12.4887 5.15084L10.5181 8.11546L10.1997 7.75452L12.1703 4.78991Z" fill="white"/>
<path fill-rule="evenodd" clip-rule="evenodd" d="M11.2724 4.88456L12.5432 6.32587L11.4179 8.0206L10.1452 6.57867L11.2724 4.88456Z" fill="white"/>
<path fill-rule="evenodd" clip-rule="evenodd" d="M10.2271 1.84257L9.94519 2.26679L12.1703 4.78992L12.4523 4.36577L10.2271 1.84257Z" fill="#190C80"/>
<path fill-rule="evenodd" clip-rule="evenodd" d="M11.127 1.74771L9.99977 3.44355L11.2725 4.88457L12.3978 3.19074L11.127 1.74771Z" fill="#190C80"/>
<path fill-rule="evenodd" clip-rule="evenodd" d="M12.6252 1.58976L12.3432 2.01399L14.5698 4.53697L14.8517 4.11283L12.6252 1.58976Z" fill="white"/>
<path fill-rule="evenodd" clip-rule="evenodd" d="M13.5251 1.4949L12.3978 3.19074L13.6706 4.63176L14.7972 2.9378L13.5251 1.4949Z" fill="white"/>
<path fill-rule="evenodd" clip-rule="evenodd" d="M13.6885 18.025L13.7635 19.6412L14.9635 19.5147L14.8886 17.8985L13.6885 18.025Z" fill="white"/>
<path fill-rule="evenodd" clip-rule="evenodd" d="M11.2904 18.2778L11.3654 19.8941L12.5641 19.7677L12.4892 18.1515L11.2904 18.2778Z" fill="#190C80"/>
<path fill-rule="evenodd" clip-rule="evenodd" d="M14.3525 19.3331L14.7748 18.6969L14.298 18.158L13.8749 18.7917L14.3525 19.3331Z" fill="#190C80"/>
<path fill-rule="evenodd" clip-rule="evenodd" d="M11.9544 19.5859L12.376 18.9498L11.8999 18.4108L11.4768 19.0445L11.9544 19.5859Z" fill="white"/>
<path fill-rule="evenodd" clip-rule="evenodd" d="M11.1449 15.141L11.2199 16.7572L12.4186 16.6308L12.3437 15.0146L11.1449 15.141Z" fill="white"/>
<path fill-rule="evenodd" clip-rule="evenodd" d="M13.543 14.8882L13.618 16.5044L14.818 16.3779L14.7431 14.7616L13.543 14.8882Z" fill="#190C80"/>
<path fill-rule="evenodd" clip-rule="evenodd" d="M11.8088 16.449L11.3314 15.9085L11.7543 15.274L12.2305 15.8137L11.8088 16.449Z" fill="#190C80"/>
<path fill-rule="evenodd" clip-rule="evenodd" d="M14.207 16.1962L13.7294 15.6557L14.1525 15.0212L14.6293 15.5608L14.207 16.1962Z" fill="white"/>
<path fill-rule="evenodd" clip-rule="evenodd" d="M18.195 11.2455L18.27 12.8626L19.4688 12.7363L19.3938 11.1192L18.195 11.2455Z" fill="white"/>
<path fill-rule="evenodd" clip-rule="evenodd" d="M15.7963 11.4984L15.8713 13.1155L17.0706 12.9891L16.9956 11.372L15.7963 11.4984Z" fill="#190C80"/>
<path fill-rule="evenodd" clip-rule="evenodd" d="M18.8571 12.5555L19.2801 11.9193L18.8025 11.3779L18.3815 12.014L18.8571 12.5555Z" fill="#190C80"/>
<path fill-rule="evenodd" clip-rule="evenodd" d="M16.459 12.8083L16.8819 12.1721L16.4044 11.6307L15.9827 12.2669L16.459 12.8083Z" fill="white"/>
<path fill-rule="evenodd" clip-rule="evenodd" d="M13.3975 11.7513L13.4725 13.3684L14.6726 13.2419L14.5976 11.6248L13.3975 11.7513Z" fill="white"/>
<path fill-rule="evenodd" clip-rule="evenodd" d="M10.9994 12.0041L11.0744 13.6212L12.2732 13.4948L12.1982 11.8777L10.9994 12.0041Z" fill="#190C80"/>
<path fill-rule="evenodd" clip-rule="evenodd" d="M14.0616 13.061L14.4838 12.4249L14.0069 11.8834L13.584 12.5197L14.0616 13.061Z" fill="#190C80"/>
<path fill-rule="evenodd" clip-rule="evenodd" d="M11.6634 13.3139L12.0851 12.6778L11.6088 12.1363L11.1859 12.7726L11.6634 13.3139Z" fill="white"/>
<path fill-rule="evenodd" clip-rule="evenodd" d="M15.9417 14.6353L16.0167 16.2515L17.2161 16.1251L17.1411 14.5088L15.9417 14.6353Z" fill="white"/>
<path fill-rule="evenodd" clip-rule="evenodd" d="M18.3405 14.3824L18.4155 15.9986L19.6142 15.8723L19.5393 14.256L18.3405 14.3824Z" fill="#190C80"/>
<path fill-rule="evenodd" clip-rule="evenodd" d="M16.6044 15.9435L16.1282 15.4028L16.5499 14.7684L17.0274 15.308L16.6044 15.9435Z" fill="#190C80"/>
<path fill-rule="evenodd" clip-rule="evenodd" d="M19.0025 15.6907L18.527 15.15L18.948 14.5156L19.4255 15.0552L19.0025 15.6907Z" fill="white"/>
<path fill-rule="evenodd" clip-rule="evenodd" d="M18.486 17.5193L18.561 19.1355L19.7597 19.0091L19.6848 17.3929L18.486 17.5193Z" fill="white"/>
<path fill-rule="evenodd" clip-rule="evenodd" d="M16.0872 17.7722L16.1622 19.3884L17.3616 19.2619L17.2866 17.6457L16.0872 17.7722Z" fill="#190C80"/>
<path fill-rule="evenodd" clip-rule="evenodd" d="M19.148 18.8275L19.571 18.1913L19.0935 17.6525L18.6724 18.286L19.148 18.8275Z" fill="#190C80"/>
<path fill-rule="evenodd" clip-rule="evenodd" d="M16.7499 19.0803L17.1729 18.4441L16.6954 17.9053L16.2737 18.5389L16.7499 19.0803Z" fill="white"/>
<path fill-rule="evenodd" clip-rule="evenodd" d="M15.3576 2.04179L15.4325 3.65711L16.6319 3.53067L16.557 1.91535L15.3576 2.04179Z" fill="white"/>
<path fill-rule="evenodd" clip-rule="evenodd" d="M17.7564 1.7889L17.8313 3.40422L19.0301 3.27785L18.9551 1.66253L17.7564 1.7889Z" fill="#190C80"/>
<path fill-rule="evenodd" clip-rule="evenodd" d="M15.968 2.22267L15.5463 2.85883L16.0225 3.39854L16.4455 2.76404L15.968 2.22267Z" fill="#190C80"/>
<path fill-rule="evenodd" clip-rule="evenodd" d="M18.3661 1.96986L17.9451 2.60596L18.4206 3.14574L18.8437 2.51123L18.3661 1.96986Z" fill="white"/>
<path fill-rule="evenodd" clip-rule="evenodd" d="M15.503 5.17691L15.578 6.79396L16.7774 6.66753L16.7024 5.05047L15.503 5.17691Z" fill="#190C80"/>
<path fill-rule="evenodd" clip-rule="evenodd" d="M16.1134 5.35873L16.5909 5.89918L16.168 6.5354L15.6917 5.99398L16.1134 5.35873Z" fill="white"/>
<path fill-rule="evenodd" clip-rule="evenodd" d="M10.8517 8.81947L10.9268 10.4373L12.1255 10.3109L12.0504 8.6931L10.8517 8.81947Z" fill="white"/>
<path fill-rule="evenodd" clip-rule="evenodd" d="M13.2498 8.56666L13.3248 10.1845L14.5249 10.058L14.4498 8.44015L13.2498 8.56666Z" fill="#190C80"/>
<path fill-rule="evenodd" clip-rule="evenodd" d="M11.4633 9.0003L11.0404 9.6365L11.518 10.1778L11.9396 9.54172L11.4633 9.0003Z" fill="#190C80"/>
<path fill-rule="evenodd" clip-rule="evenodd" d="M13.8615 8.74748L13.4385 9.38369L13.9161 9.92497L14.3384 9.28883L13.8615 8.74748Z" fill="white"/>
<path fill-rule="evenodd" clip-rule="evenodd" d="M15.6485 8.31378L15.7236 9.93163L16.9229 9.80519L16.8479 8.18734L15.6485 8.31378Z" fill="white"/>
<path fill-rule="evenodd" clip-rule="evenodd" d="M18.0473 8.06091L18.1224 9.67875L19.3211 9.55238L19.2461 7.93454L18.0473 8.06091Z" fill="#190C80"/>
<path fill-rule="evenodd" clip-rule="evenodd" d="M16.2589 8.49476L15.8373 9.13083L16.3135 9.67225L16.7365 9.03604L16.2589 8.49476Z" fill="#190C80"/>
<path fill-rule="evenodd" clip-rule="evenodd" d="M18.657 8.24194L18.236 8.87794L18.7116 9.41943L19.1346 8.78322L18.657 8.24194Z" fill="white"/>
<path fill-rule="evenodd" clip-rule="evenodd" d="M13.1043 5.42979L13.1793 7.04684L14.3794 6.92033L14.3044 5.30328L13.1043 5.42979Z" fill="white"/>
<path fill-rule="evenodd" clip-rule="evenodd" d="M10.7062 5.68257L10.7812 7.29963L11.9799 7.17326L11.9049 5.55621L10.7062 5.68257Z" fill="#190C80"/>
<path fill-rule="evenodd" clip-rule="evenodd" d="M13.716 5.61145L14.1929 6.15198L13.7706 6.78812L13.293 6.24684L13.716 5.61145Z" fill="#190C80"/>
<path fill-rule="evenodd" clip-rule="evenodd" d="M11.3179 5.86425L11.7941 6.40485L11.3725 7.04092L10.895 6.49963L11.3179 5.86425Z" fill="white"/>
<path fill-rule="evenodd" clip-rule="evenodd" d="M10.5608 2.54746L10.6357 4.16278L11.8344 4.03641L11.7595 2.42109L10.5608 2.54746Z" fill="white"/>
<path fill-rule="evenodd" clip-rule="evenodd" d="M12.9589 2.29465L13.0338 3.90997L14.2339 3.78346L14.1589 2.16815L12.9589 2.29465Z" fill="#190C80"/>
<path fill-rule="evenodd" clip-rule="evenodd" d="M11.1724 2.7282L10.7495 3.3645L11.227 3.90408L11.6487 3.26971L11.1724 2.7282Z" fill="#190C80"/>
<path fill-rule="evenodd" clip-rule="evenodd" d="M13.5706 2.47538L13.1476 3.11169L13.6251 3.65126L14.0474 3.01683L13.5706 2.47538Z" fill="white"/>
<path fill-rule="evenodd" clip-rule="evenodd" d="M19.3666 4.03129L19.6844 4.3923L17.7137 7.35692L17.3953 6.99598L19.3666 4.03129Z" fill="#190C80"/>
<path fill-rule="evenodd" clip-rule="evenodd" d="M17.9018 4.92403L17.9768 6.54109L19.1756 6.41472L19.1006 4.79766L17.9018 4.92403Z" fill="white"/>
<path fill-rule="evenodd" clip-rule="evenodd" d="M18.5115 5.10591L18.9891 5.64636L18.5661 6.28258L18.0905 5.74109L18.5115 5.10591Z" fill="#190C80"/>
<path fill-rule="evenodd" clip-rule="evenodd" d="M9.56428 1.62056L19.7868 0.542908L20.6917 20.0503L10.4691 21.1279L9.56428 1.62056Z" stroke="#1E0C7D" stroke-width="3.73459" stroke-miterlimit="10" stroke-linejoin="round"/>
</g>
<defs>
<clipPath id="clip0">
<rect width="11.0604" height="20.2805" fill="white" transform="matrix(-0.966438 -0.256902 0.11617 -0.993229 10.6892 24)"/>
</clipPath>
<clipPath id="clip1">
<rect width="10.8876" height="20.426" fill="white" transform="matrix(-0.994489 0.104838 -0.0463343 -0.998926 21 20.4041)"/>
</clipPath>
</defs>
</svg>
